<svg xmlns="http://www.w3.org/2000/svg" viewBox="0 0 153.28 153.28"><defs><style>.cls-1{fill:#1abc9c;}.cls-2{fill:#171c1f;}.cls-3{opacity:0.1;}.cls-4{fill:#eee;}.cls-5{fill:#fff;}.cls-6{fill:#e67e22;}.cls-7{fill:#ff7575;}.cls-8{fill:#70cbf6;}.cls-9{opacity:0.25;}</style></defs><title>Ativo 18</title><g id="Camada_2" data-name="Camada 2"><g id="Camada_1-2" data-name="Camada 1"><g id="Yellow"><circle class="cls-1" cx="76.64" cy="77.63" r="61.72"/></g><g id="Outline"><path class="cls-2" d="M76.64,0a76.64,76.64,0,1,0,76.64,76.64A76.64,76.64,0,0,0,76.64,0Zm0,147.49a70.85,70.85,0,1,1,70.85-70.85A70.85,70.85,0,0,1,76.64,147.49Z"/></g><g id="Shadows" class="cls-3"><path d="M149,74.17a72.34,72.34,0,0,1-144.66,0c0,.49,0,1,0,1.48a72.37,72.37,0,1,0,144.73,0C149,75.15,149,74.66,149,74.17ZM76.64,21a60.55,60.55,0,0,1,60.48,57.6c0-1,.07-2,.07-3a60.55,60.55,0,0,0-121.1,0c0,1,0,2,.07,3A60.55,60.55,0,0,1,76.64,21Z"/></g><path class="cls-2" d="M76.64,142a64,64,0,1,1,64-64A64,64,0,0,1,76.64,142Zm0-124.89A60.92,60.92,0,1,0,137.56,78,61,61,0,0,0,76.64,17.1Z"/><path class="cls-2" d="M76.64,142a64,64,0,1,1,64-64A64,64,0,0,1,76.64,142Zm0-124.89A60.92,60.92,0,1,0,137.56,78,61,61,0,0,0,76.64,17.1Z"/><g id="Fill_2" data-name="Fill 2"><rect class="cls-4" x="47.58" y="45.7" width="39.85" height="52.3"/></g><g id="Fill_1" data-name="Fill 1"><polygon class="cls-5" points="96.2 54.42 65.02 54.42 65.02 106.72 104.87 106.72 104.87 63.14 96.2 54.42"/></g><g id="Yellow-2" data-name="Yellow"><polygon class="cls-6" points="93.66 53.17 93.66 65.63 106.11 65.63 93.66 53.17"/></g><g id="Red"><path class="cls-7" d="M93,84.93v-5.6a5.6,5.6,0,1,0,5.6,5.6Z"/></g><g id="Blue"><path class="cls-8" d="M94.28,78.08h0v5.6h5.6A5.6,5.6,0,0,0,94.28,78.08Z"/></g><g id="Inner_Lines_2" data-name="Inner Lines 2" class="cls-3"><path class="cls-2" d="M52.56,91.78h10V90.53h-10Zm5-41.09h-5v1.25h5Zm-5,36.11h10V85.55h-10Zm10-31.13h-10v1.25h10Zm-10,26.15h10V80.57h-10Zm0-10h10V70.61h-10Zm0-11.21v1.25h10V60.65Zm0,6.23h10V65.63h-10Z"/></g><g id="Inner_Lines_1" data-name="Inner Lines 1" class="cls-9"><path class="cls-2" d="M87.43,69.36H70v1.25H87.43Zm-3.74,10H70v1.25H83.7ZM80,59.4H70v1.25H80Zm7.47,5H70v1.25H87.43ZM83.7,84.31H70v1.25H83.7Zm0,5H70v1.25H83.7ZM70,74.34v1.25H99.89V74.34Zm0,21.17H99.89V94.27H70Zm0,5H89.92V99.25H70Z"/></g><g id="Shadows-2" data-name="Shadows" class="cls-3"><path d="M64.18,107.47H104v-1.25H64.18ZM86.6,52.68V50.19H64.18a5,5,0,0,0-5,5V97.51H46.75v1.25H61.69V55.17a2.49,2.49,0,0,1,2.49-2.49Zm6.23,1.25H89.09V67a3.11,3.11,0,0,0,3.11,3.11h13.08V66.38Z"/></g><g id="Outline-2" data-name="Outline"><path class="cls-2" d="M107,64.75,94.54,52.29a1.24,1.24,0,0,0-.88-.36H89.92V45.7a2.49,2.49,0,0,0-2.49-2.49H47.58a2.49,2.49,0,0,0-2.49,2.49V98a2.49,2.49,0,0,0,2.49,2.49H62.53v6.23A2.49,2.49,0,0,0,65,109.21h39.85a2.49,2.49,0,0,0,2.49-2.49V65.63A1.24,1.24,0,0,0,107,64.75ZM93.66,54.94l10.69,10.69H93.66Zm-31.13-.52V98H47.58V45.7H87.43v6.23H65A2.49,2.49,0,0,0,62.53,54.42Zm42.34,52.3H65V54.42h27.4V66.25a.62.62,0,0,0,.62.62h11.83Z"/></g></g></g></svg>