<svg xmlns="http://www.w3.org/2000/svg" viewBox="0 0 153.28 153.28"><defs><style>.cls-1{fill:#1abc9c;}.cls-2{fill:#171c1f;}.cls-3{opacity:0.1;}.cls-4{fill:#e67e22;}.cls-5{fill:#fff;}.cls-6{fill:#485761;}.cls-7{opacity:0.15;}.cls-8{fill:#313e4b;}.cls-9{fill:#242424;}</style></defs><title>Ativo 19</title><g id="Camada_2" data-name="Camada 2"><g id="Camada_1-2" data-name="Camada 1"><g id="Yellow"><circle class="cls-1" cx="76.64" cy="77.63" r="61.72"/></g><g id="Outline"><path class="cls-2" d="M76.64,0a76.64,76.64,0,1,0,76.64,76.64A76.64,76.64,0,0,0,76.64,0Zm0,147.49a70.85,70.85,0,1,1,70.85-70.85A70.85,70.85,0,0,1,76.64,147.49Z"/></g><g id="Shadows" class="cls-3"><path d="M149,74.17a72.34,72.34,0,0,1-144.66,0c0,.49,0,1,0,1.48a72.37,72.37,0,1,0,144.73,0C149,75.15,149,74.66,149,74.17ZM76.64,21a60.55,60.55,0,0,1,60.48,57.6c0-1,.07-2,.07-3a60.55,60.55,0,0,0-121.1,0c0,1,0,2,.07,3A60.55,60.55,0,0,1,76.64,21Z"/></g><path class="cls-2" d="M76.64,142a64,64,0,1,1,64-64A64,64,0,0,1,76.64,142Zm0-124.89A60.92,60.92,0,1,0,137.56,78,61,61,0,0,0,76.64,17.1Z"/><path class="cls-2" d="M76.64,142a64,64,0,1,1,64-64A64,64,0,0,1,76.64,142Zm0-124.89A60.92,60.92,0,1,0,137.56,78,61,61,0,0,0,76.64,17.1Z"/><g id="Red"><path class="cls-4" d="M60.58,78.66a4.47,4.47,0,0,0-4.47,4.47v20.41a4.47,4.47,0,0,0,8.93,0V83.12A4.47,4.47,0,0,0,60.58,78.66Zm30.62,0a4.47,4.47,0,0,0-4.47,4.47v20.41a4.47,4.47,0,1,0,8.93,0V83.12A4.47,4.47,0,0,0,91.2,78.66Z"/></g><g id="White"><path class="cls-5" d="M75.89,43.58A28.1,28.1,0,0,0,47.82,71.64v.64h0C48,84,51.55,97,51.72,97.65l.05.17a1.91,1.91,0,0,0,3.71-.66,2,2,0,0,0,0-.39l0-.16c-.62-2.32-3.65-14.27-3.75-24.5v-.47a24.24,24.24,0,1,1,48.48,0V72c-.08,10.21-3.14,22.23-3.77,24.6l0,.13a1.91,1.91,0,0,0,3.69,1l0-.17c.15-.55,3.74-13.58,3.87-25.31v-.64A28.1,28.1,0,0,0,75.89,43.58Z"/></g><g id="Yellow-2" data-name="Yellow"><path class="cls-6" d="M53.25,94a2.87,2.87,0,1,0,2.87,2.87A2.87,2.87,0,0,0,53.25,94ZM97.9,94a2.87,2.87,0,1,0,2.87,2.87A2.87,2.87,0,0,0,97.9,94Z"/></g><g id="Teal"><path class="cls-4" d="M75.89,42.94a28.56,28.56,0,0,0-15.78,4.73,15.83,15.83,0,0,0,1.61,5.1,23.6,23.6,0,0,1,28.35,0,15.82,15.82,0,0,0,1.61-5.1A28.56,28.56,0,0,0,75.89,42.94Z"/></g><g id="Inner_Lines_1" data-name="Inner Lines 1" class="cls-7"><path class="cls-8" d="M57.39,85.94l6.38,6.38v-1.8l-6.38-6.38Zm0,5.1,6.38,6.38v-1.8l-6.38-6.38Zm0,10.21,4.95,4.95a3.21,3.21,0,0,0,.9-.9l-5.85-5.85Zm0-5.1,6.38,6.38v-1.8l-6.38-6.38ZM93,80.46,88,85.41v1.8l5.85-5.85A3.2,3.2,0,0,0,93,80.46Zm-35,.9,5.85,5.85v-1.8l-4.95-4.95A3.2,3.2,0,0,0,57.92,81.37ZM89.44,106.2l4.95-4.95v-1.8l-5.85,5.85A3.2,3.2,0,0,0,89.44,106.2ZM88,97.42,94.39,91v-1.8L88,95.62Zm0-6.91v1.8l6.38-6.38v-1.8Zm0,12,6.38-6.38v-1.8L88,100.72Z"/></g><g id="Inner_Lines_2" data-name="Inner Lines 2"><path class="cls-9" d="M59.53,48.06a16.46,16.46,0,0,0,1.68,5.11q.51-.4,1-.78a15.19,15.19,0,0,1-1.54-5.1Q60.1,47.66,59.53,48.06ZM50.25,94.65l.45,1.19,5.1-1.91-.45-1.19Zm46.18-1.91L96,93.93l5.1,1.91.45-1.19ZM89.54,52.39q.53.38,1,.78a16.45,16.45,0,0,0,1.68-5.11q-.58-.4-1.17-.77A15.19,15.19,0,0,1,89.54,52.39Z"/></g><g id="Shadows-2" data-name="Shadows" class="cls-3"><path d="M91.2,105.45A3.19,3.19,0,0,1,88,102.26v1.28a3.19,3.19,0,0,0,6.38,0v-1.28A3.19,3.19,0,0,1,91.2,105.45Zm-30.62,0a3.19,3.19,0,0,1-3.19-3.19v1.28a3.19,3.19,0,1,0,6.38,0v-1.28A3.19,3.19,0,0,1,60.58,105.45Z"/></g><g id="Outline-2" data-name="Outline"><path class="cls-2" d="M75.89,41.66a30,30,0,0,0-30,30c0,.06,0,.13,0,.19C46,83.13,49.27,96,49.86,98.1c0,.09,0,.17.07.26h0a3.78,3.78,0,0,0,4.91,2.39v2.79a5.74,5.74,0,1,0,11.48,0V83.12a5.74,5.74,0,1,0-11.48,0v1.7a82.34,82.34,0,0,1-1.28-13.12s0,0,0-.06a22.33,22.33,0,0,1,44.65,0s0,0,0,.06a82.34,82.34,0,0,1-1.28,13.12v-1.7a5.74,5.74,0,0,0-11.48,0v20.41a5.74,5.74,0,1,0,11.48,0v-2.79a3.78,3.78,0,0,0,4.91-2.39h0c0-.08.05-.17.07-.26.59-2.13,3.9-15,3.94-26.27,0-.06,0-.13,0-.19A30,30,0,0,0,75.89,41.66ZM57.39,83.12a3.19,3.19,0,1,1,6.38,0v20.41a3.19,3.19,0,1,1-6.38,0Zm37,20.41a3.19,3.19,0,0,1-6.38,0V83.12a3.19,3.19,0,1,1,6.38,0Zm8.93-31.89v.18c0,11.74-3.69,25-3.85,25.6v.05l0,.09v0a1.28,1.28,0,0,1-2.47-.44,1.31,1.31,0,0,1,0-.26l0-.13c.56-2.11,3.77-14.64,3.78-25.07v-.07h0a24.88,24.88,0,1,0-49.76,0h0v.07c0,10.43,3.22,23,3.78,25.07l0,.13a1.3,1.3,0,0,1,0,.26,1.28,1.28,0,0,1-2.47.44v0l0-.09v-.05c-.16-.56-3.81-13.86-3.85-25.6v-.18h0a27.43,27.43,0,0,1,54.86,0Z"/></g></g></g></svg>