<svg xmlns="http://www.w3.org/2000/svg" viewBox="0 0 22.28 17.24"><defs><style>.cls-1{fill:#43d490;}.cls-2{fill:#485761;}.cls-3{fill:#171c1f;}.cls-4{opacity:0.1;}</style></defs><title>check</title><g id="Camada_2" data-name="Camada 2"><g id="Camada_1-2" data-name="Camada 1"><g id="Fill"><polygon class="cls-1" points="19.34 0.42 7.99 11.77 2.94 6.73 0.42 9.25 7.99 16.82 21.86 2.94 19.34 0.42"/></g><g id="Dark_Blue" data-name="Dark Blue"><path class="cls-2" d="M19.34.42l-2,2a5.89,5.89,0,0,0-.2,5.24l4.73-4.73Z"/></g><g id="Inner_Lines" data-name="Inner Lines"><path class="cls-3" d="M19.56.64,19.34.42l-2,2a5.89,5.89,0,0,0-.2,5.24l.32-.32A5.47,5.47,0,0,1,19.56.64Z"/></g><g id="Shadows" class="cls-4"><polygon points="21.13 2.63 7.99 15.77 1.16 8.93 0.84 9.25 7.99 16.4 21.44 2.94 21.13 2.63"/></g><g id="Outline"><path class="cls-3" d="M22,2.35,19.93.25a.84.84,0,0,0-1.19,0L8,11,3.54,6.55a.84.84,0,0,0-1.19,0L.25,8.65a.84.84,0,0,0,0,1.19L7.39,17a.84.84,0,0,0,1.19,0L22,3.54a.84.84,0,0,0,0-1.19ZM8,16.4.84,9.25l2.1-2.1L7.39,11.6l.59.59.59-.59L19.34.84h0l2.1,2.1Z"/></g></g></g></svg>