<svg xmlns="http://www.w3.org/2000/svg" viewBox="0 0 153.28 153.28"><defs><style>.cls-1{fill:#1abc9c;}.cls-2{fill:#171c1f;}.cls-3{opacity:0.1;}.cls-4{fill:#fff;}</style></defs><title>concluindo</title><g id="Camada_2" data-name="Camada 2"><g id="Camada_1-2" data-name="Camada 1"><g id="Yellow"><circle class="cls-1" cx="76.64" cy="77.63" r="61.72"/></g><g id="Outline"><path class="cls-2" d="M76.64,0a76.64,76.64,0,1,0,76.64,76.64A76.64,76.64,0,0,0,76.64,0Zm0,147.49a70.85,70.85,0,1,1,70.85-70.85A70.85,70.85,0,0,1,76.64,147.49Z"/></g><g id="Shadows" class="cls-3"><path d="M76.64,21a60.55,60.55,0,0,1,60.48,57.6c0-1,.07-2,.07-3a60.55,60.55,0,1,0-121.1,0c0,1,0,2,.07,3A60.55,60.55,0,0,1,76.64,21ZM149,74.17a72.34,72.34,0,0,1-144.66,0c0,.49,0,1,0,1.48a72.37,72.37,0,0,0,144.73,0C149,75.15,149,74.66,149,74.17Z"/></g><path class="cls-2" d="M76.64,142a64,64,0,1,1,64-64A64,64,0,0,1,76.64,142Zm0-124.89A60.92,60.92,0,1,0,137.56,78,61,61,0,0,0,76.64,17.1Z"/><path class="cls-2" d="M76.64,142a64,64,0,1,1,64-64A64,64,0,0,1,76.64,142Zm0-124.89A60.92,60.92,0,1,0,137.56,78,61,61,0,0,0,76.64,17.1Z"/><g id="Fill"><path class="cls-4" d="M84.1,47.4c-9.44,2.38-20.06,7.12-31,.12V84.87c10.93,7,21.54,2.27,31-.12,9.44-2.78,17.72-3.21,24,3.23V50.63C101.81,44.19,93.54,44.62,84.1,47.4Z"/></g><g id="Shadows-2" data-name="Shadows" class="cls-3"><path d="M95.34,80.34a40.87,40.87,0,0,0-11.55,2c-1.39.35-2.78.74-4.24,1.16-4.5,1.28-9.14,2.59-13.88,2.59a21.36,21.36,0,0,1-11.32-3.12v1.25A21.36,21.36,0,0,0,65.67,87.3c4.73,0,9.38-1.32,13.88-2.59,1.46-.41,2.84-.81,4.24-1.16a40.87,40.87,0,0,1,11.55-2,18.26,18.26,0,0,1,11.47,3.62V84A18.26,18.26,0,0,0,95.34,80.34Z"/></g><g id="Outline-2" data-name="Outline"><path class="cls-2" d="M109,49.75a18,18,0,0,0-13.62-5.54,40.87,40.87,0,0,0-11.55,2c-1.39.35-2.84.76-4.24,1.16-4.49,1.27-9.14,2.59-13.88,2.59a21.36,21.36,0,0,1-11.32-3.13V45.46a1.25,1.25,0,0,0-2.5,0v63.69a1.25,1.25,0,0,0,2.5,0V87A23.75,23.75,0,0,0,65.67,89.8c5.08,0,9.9-1.37,14.56-2.69,1.44-.41,2.81-.8,4.22-1.15a39.21,39.21,0,0,1,10.89-1.87,15.61,15.61,0,0,1,11.82,4.78,1.25,1.25,0,0,0,2.15-.87V50.61A1.24,1.24,0,0,0,109,49.75Zm-2.15,35.46a18.26,18.26,0,0,0-11.47-3.62,40.87,40.87,0,0,0-11.55,2c-1.39.35-2.78.74-4.24,1.16C75.06,86,70.41,87.3,65.67,87.3a21.36,21.36,0,0,1-11.32-3.12V49.67a23.76,23.76,0,0,0,11.32,2.75c5.08,0,9.9-1.37,14.56-2.69,1.44-.41,2.81-.8,4.22-1.15A39.21,39.21,0,0,1,95.34,46.7a15.64,15.64,0,0,1,11.47,4.43Z"/></g><g id="Black"><path class="cls-2" d="M106.81,85.66V76.18a21.52,21.52,0,0,0-8.74-2.76v9.49A21.52,21.52,0,0,1,106.81,85.66ZM54.36,49v9.49a21.52,21.52,0,0,0,8.74,2.76V51.72A21.52,21.52,0,0,1,54.36,49Zm26.23,0c-2.91.83-5.83,1.65-8.74,2.21v9.49c2.91-.55,5.83-1.38,8.74-2.21Zm0,36.08c2.91-.83,5.83-1.65,8.74-2.21V74c-2.91.55-5.83,1.38-8.74,2.21ZM54.36,67.31v8.86a21.52,21.52,0,0,0,8.74,2.76V70.07A21.52,21.52,0,0,1,54.36,67.31Zm52.45,0V58.45a21.52,21.52,0,0,0-8.74-2.76v8.86A21.53,21.53,0,0,1,106.81,67.31ZM63.1,78.93V88.4l.72.07a32.06,32.06,0,0,0,8-.6V78.38A31.13,31.13,0,0,1,63.1,78.93Zm8.74-9.41v8.86c2.91-.55,5.83-1.38,8.74-2.21V67.31C77.67,68.14,74.76,69,71.84,69.52Zm17.48-4.41V74a31.13,31.13,0,0,1,8.74-.55V64.56A31.13,31.13,0,0,0,89.33,65.11Zm8.74-9.41V46.2a31.13,31.13,0,0,0-8.74.55v9.49A31.13,31.13,0,0,1,98.07,55.69ZM71.84,69.52V60.66a31.13,31.13,0,0,1-8.74.55v8.86A31.13,31.13,0,0,0,71.84,69.52Zm17.48-4.41V56.24c-2.91.55-5.83,1.38-8.74,2.21v8.86C83.5,66.49,86.41,65.66,89.33,65.11Z"/></g></g></g></svg>