<svg xmlns="http://www.w3.org/2000/svg" viewBox="0 0 153.28 153.28"><defs><style>.cls-1{fill:#1abc9c;}.cls-2{fill:#171c1f;}.cls-3{opacity:0.1;}.cls-4{fill:#f9f9f9;}.cls-5{opacity:0.1;}.cls-6{fill:#e67e22;}.cls-7{fill:#fff;}.cls-8{fill:#d35400;}</style></defs><title>curtir</title><g id="Camada_2" data-name="Camada 2"><g id="Camada_1-2" data-name="Camada 1"><g id="Yellow"><circle class="cls-1" cx="76.64" cy="77.63" r="61.72"/></g><g id="Outline"><path class="cls-2" d="M76.64,0a76.64,76.64,0,1,0,76.64,76.64A76.64,76.64,0,0,0,76.64,0Zm0,147.49a70.85,70.85,0,1,1,70.85-70.85A70.85,70.85,0,0,1,76.64,147.49Z"/></g><g id="Shadows" class="cls-3"><path d="M149,74.17a72.34,72.34,0,0,1-144.66,0c0,.49,0,1,0,1.48a72.37,72.37,0,1,0,144.73,0C149,75.15,149,74.66,149,74.17ZM76.64,21a60.55,60.55,0,0,1,60.48,57.6c0-1,.07-2,.07-3a60.55,60.55,0,0,0-121.1,0c0,1,0,2,.07,3A60.55,60.55,0,0,1,76.64,21Z"/></g><path class="cls-2" d="M76.64,142a64,64,0,1,1,64-64A64,64,0,0,1,76.64,142Zm0-124.89A60.92,60.92,0,1,0,137.56,78,61,61,0,0,0,76.64,17.1Z"/><path class="cls-2" d="M76.64,142a64,64,0,1,1,64-64A64,64,0,0,1,76.64,142Zm0-124.89A60.92,60.92,0,1,0,137.56,78,61,61,0,0,0,76.64,17.1Z"/><path class="cls-2" d="M64.85,104.26a3,3,0,0,1-.81-.12,3.33,3.33,0,0,1-.46-.12h-12a5.42,5.42,0,0,1-5.5-4.21,3.1,3.1,0,0,1-.12-.72L42.25,75a3,3,0,0,1,0-.46,5.59,5.59,0,0,1,.11-1.1,4.15,4.15,0,0,1,.11-.42,5.88,5.88,0,0,1,.19-.58,4.7,4.7,0,0,1,.23-.48,5.06,5.06,0,0,1,.25-.45,5.89,5.89,0,0,1,.38-.52l.24-.28a5.32,5.32,0,0,1,.55-.52l.23-.18a4.8,4.8,0,0,1,.63-.4l.23-.11.37-.15a3,3,0,0,1,.93-.27A6.24,6.24,0,0,1,47.84,69H64.17a5.82,5.82,0,0,1,4.35,2h3.16l.22-.25A35,35,0,0,0,75,66.32l.42-.67a47.59,47.59,0,0,1,3-4.45A16.1,16.1,0,0,1,82,57.85l.1-.08c0-.05.11-.15.24-.34.28-.39.67-1,1.36-1.83a11.29,11.29,0,0,0,2.72-6.16c.09-.51.15-.86.22-1.21a7.08,7.08,0,0,1,2.85-4.35,6.15,6.15,0,0,1,.8-.47l.23-.1a6.29,6.29,0,0,1,.83-.29l.23-.06a5.85,5.85,0,0,1,1.26-.15,6,6,0,0,1,3.47,1.13c3.24,2.27,4.64,7.81,4.08,11.65-.47,3.23-2,7.76-3.78,9.79l-.15.17,6.52,0c6.1,0,10,3.38,10,8.5a8.71,8.71,0,0,1-1.07,4.36,7.55,7.55,0,0,1,.61,4.38,9,9,0,0,1-.88,3,7.6,7.6,0,0,1-.91,1.39,8.47,8.47,0,0,1,.12,3.54,7.83,7.83,0,0,1-1.77,3.81,8.07,8.07,0,0,1,0,2.86,6.77,6.77,0,0,1-3.68,5,3.15,3.15,0,0,1-.6.22l-.16,0a8.65,8.65,0,0,1-2.65.46l-.43,0a3,3,0,0,1-.88-.13H75.87A6.7,6.7,0,0,1,72,101.66l-.09-.06-.36-.22a2.12,2.12,0,0,0-.76-.32H69.4a2.92,2.92,0,0,1-.26.39h0a5.82,5.82,0,0,1-.52.81l-.12.14A5.75,5.75,0,0,1,68,103l-.31.25a4.45,4.45,0,0,1-.49.35,3.52,3.52,0,0,1-.51.27,3.57,3.57,0,0,1-.47.19,3.11,3.11,0,0,1-1.07.2Z"/><path class="cls-4" d="M75.87,100.33a3.86,3.86,0,0,1-2.27-1.07,5.64,5.64,0,0,0-2.32-1.2H66.7a1,1,0,0,1-1-1V75.21a1,1,0,0,1,1-1h6.07a8,8,0,0,0,1.38-1.35A44.12,44.12,0,0,0,78,67.24a45.06,45.06,0,0,1,2.84-4.17,13.21,13.21,0,0,1,2.94-2.81c.82-.59.65-.73,2.28-2.81a14.23,14.23,0,0,0,3.31-7.51c.06-.36.12-.74.2-1.11a3.64,3.64,0,0,1,3.27-3,3,3,0,0,1,1.75.59c2.13,1.5,3.26,5.86,2.83,8.76s-1.79,6.82-3,8.21A4.88,4.88,0,0,0,93,67.62c.11.88,1.46.91,1.52.92l8.45,0c2.44,0,7.06.78,7.06,5.5a5.09,5.09,0,0,1-1.89,4.27,4.21,4.21,0,0,1,1.45,4.1,4.86,4.86,0,0,1-2.47,3.92,4.87,4.87,0,0,1,.81,3.86,4.67,4.67,0,0,1-2.33,3.36,4.45,4.45,0,0,1,.54,3.26c-.61,3.21-3.38,3.39-4.57,3.47l-.37,0Z"/><path class="cls-5" d="M108.09,78.33A5.09,5.09,0,0,0,110,74.07c0-4.72-4.61-5.48-7.06-5.5l-8.45,0c-.06,0-1.41,0-1.52-.92a4.88,4.88,0,0,1,1.38-4.26c1.25-1.39,2.61-5.24,3-8.21s-.7-7.26-2.83-8.76a3,3,0,0,0-1.75-.59,2.9,2.9,0,0,0-1.69.57l0,0c2.13,1.5,3.26,5.86,2.83,8.76s-1.79,6.82-3,8.21a4.88,4.88,0,0,0-1.38,4.26c.11.88,1.46.91,1.52.92l8.45,0c2.44,0,7.06.78,7.06,5.5a5.09,5.09,0,0,1-1.89,4.27,4.21,4.21,0,0,1,1.45,4.1,4.86,4.86,0,0,1-2.47,3.92,4.87,4.87,0,0,1,.81,3.86,4.67,4.67,0,0,1-2.33,3.36,4.45,4.45,0,0,1,.54,3.26c-.61,3.21-3.38,3.39-4.57,3.47l-.37,0h3.41l.37,0c1.18-.08,4-.26,4.57-3.47a4.45,4.45,0,0,0-.54-3.26,4.67,4.67,0,0,0,2.33-3.36,4.86,4.86,0,0,0-.81-3.86,4.86,4.86,0,0,0,2.47-3.92A4.21,4.21,0,0,0,108.09,78.33ZM66.66,98.06h0Zm41.43-19.73A5.09,5.09,0,0,0,110,74.07c0-4.72-4.61-5.48-7.06-5.5l-8.45,0c-.06,0-1.41,0-1.52-.92a4.88,4.88,0,0,1,1.38-4.26c1.25-1.39,2.61-5.24,3-8.21s-.7-7.26-2.83-8.76a3,3,0,0,0-1.75-.59,2.9,2.9,0,0,0-1.69.57l0,0c2.13,1.5,3.26,5.86,2.83,8.76s-1.79,6.82-3,8.21a4.88,4.88,0,0,0-1.38,4.26c.11.88,1.46.91,1.52.92l8.45,0c2.44,0,7.06.78,7.06,5.5a5.09,5.09,0,0,1-1.89,4.27,4.21,4.21,0,0,1,1.45,4.1,4.86,4.86,0,0,1-2.47,3.92,4.87,4.87,0,0,1,.81,3.86,4.67,4.67,0,0,1-2.33,3.36,4.45,4.45,0,0,1,.54,3.26c-.61,3.21-3.38,3.39-4.57,3.47l-.37,0h3.41l.37,0c1.18-.08,4-.26,4.57-3.47a4.45,4.45,0,0,0-.54-3.26,4.67,4.67,0,0,0,2.33-3.36,4.86,4.86,0,0,0-.81-3.86,4.86,4.86,0,0,0,2.47-3.92A4.21,4.21,0,0,0,108.09,78.33ZM66.66,98.06h0Z"/><path class="cls-5" d="M65.66,74.22h3.43V98.08H65.66Z"/><path class="cls-6" d="M64.17,101.48H51.59A2.63,2.63,0,0,1,49,98.84L45.21,74.56a2.63,2.63,0,0,1,2.63-2.63H64.17a2.63,2.63,0,0,1,2.63,2.63V98.84A2.63,2.63,0,0,1,64.17,101.48Z"/><path class="cls-7" d="M60,91.26a2.27,2.27,0,1,1-2.27,2.27A2.27,2.27,0,0,1,60,91.26Z"/><path class="cls-8" d="M66.44,99.21H53.87a2.63,2.63,0,0,1-2.63-2.63L47.49,72.28l0-.33a2.62,2.62,0,0,0-2.31,2.6L49,98.84a2.63,2.63,0,0,0,2.63,2.63H64.17a2.62,2.62,0,0,0,2.59-2.3Z"/><path class="cls-8" d="M60,95.8a2.27,2.27,0,0,1-2.27-2.27,2.25,2.25,0,0,1,.2-.93,2.27,2.27,0,1,0,3,3A2.26,2.26,0,0,1,60,95.8Z"/></g></g></svg>