<svg xmlns="http://www.w3.org/2000/svg" viewBox="0 0 153.28 153.28"><defs><style>.cls-1{fill:#1abc9c;}.cls-2{fill:#171c1f;}.cls-3{opacity:0.1;}.cls-4{fill:#e67e22;fill-rule:evenodd;}</style></defs><title>desafio</title><g id="Camada_2" data-name="Camada 2"><g id="Camada_1-2" data-name="Camada 1"><g id="Yellow"><circle class="cls-1" cx="76.64" cy="77.63" r="61.72"/></g><g id="Outline"><path class="cls-2" d="M76.64,0a76.64,76.64,0,1,0,76.64,76.64A76.64,76.64,0,0,0,76.64,0Zm0,147.49a70.85,70.85,0,1,1,70.85-70.85A70.85,70.85,0,0,1,76.64,147.49Z"/></g><g id="Shadows" class="cls-3"><path d="M149,74.17a72.34,72.34,0,0,1-144.66,0c0,.49,0,1,0,1.48a72.37,72.37,0,1,0,144.73,0C149,75.15,149,74.66,149,74.17ZM76.64,21a60.55,60.55,0,0,1,60.48,57.6c0-1,.07-2,.07-3a60.55,60.55,0,1,0-121.1,0c0,1,0,2,.07,3A60.55,60.55,0,0,1,76.64,21Z"/></g><path class="cls-2" d="M76.64,142a64,64,0,1,1,64-64A64,64,0,0,1,76.64,142Zm0-124.89A60.92,60.92,0,1,0,137.56,78,61,61,0,0,0,76.64,17.1Z"/><path class="cls-2" d="M76.64,142a64,64,0,1,1,64-64A64,64,0,0,1,76.64,142Zm0-124.89A60.92,60.92,0,1,0,137.56,78,61,61,0,0,0,76.64,17.1Z"/><path class="cls-4" d="M67.51,96.73h-.2c-.21,0-.34,0-.49.36a8.36,8.36,0,0,0-.46,2.48,17.6,17.6,0,0,1-.27,2.07,8.16,8.16,0,0,1-7.57,6.28H58.4a9.73,9.73,0,0,1-6.52-3c-.45-.43-3.11-3.08-3-6.63a8.16,8.16,0,0,1,6.28-7.57,17.32,17.32,0,0,1,2.08-.27,8.22,8.22,0,0,0,2.48-.46c.22-.1.42-.18.35-.68L48.26,77.49,60.35,65.4a.41.41,0,0,0-.32-.49,7.88,7.88,0,0,0-2.38-.44,16.82,16.82,0,0,1-2-.26,7.94,7.94,0,0,1-6.12-7.37,10.26,10.26,0,0,1,9.31-9.42h.11a7.94,7.94,0,0,1,7.37,6.12,17.09,17.09,0,0,1,.26,2A8,8,0,0,0,67,57.93c.13.3.23.32.43.32h.06L79.88,45.87,92.35,58.35l.09.44a3.34,3.34,0,0,1-2,4,10,10,0,0,1-3.17.65,13.68,13.68,0,0,0-1.57.2,4.64,4.64,0,0,0-3.49,4.18,6.1,6.1,0,0,0,1.9,4l.11.11a6.15,6.15,0,0,0,3.9,1.9,4.65,4.65,0,0,0,4.24-3.48,13.67,13.67,0,0,0,.2-1.58,9.86,9.86,0,0,1,.65-3.16,3.26,3.26,0,0,1,3.09-2.06,4.52,4.52,0,0,1,.92.1l.44.09L111,77,97.22,90.78l-.48.08a4.29,4.29,0,0,1-.67.05,3.21,3.21,0,0,1-3-2,9.7,9.7,0,0,1-.64-3.1,13.19,13.19,0,0,0-.19-1.53,4.48,4.48,0,0,0-4-3.37h0a6,6,0,0,0-3.83,1.84l-.05.06-.06.05a5.9,5.9,0,0,0-1.84,3.82,4.48,4.48,0,0,0,3.37,4,13.38,13.38,0,0,0,1.53.2,9.73,9.73,0,0,1,3.11.64,3.26,3.26,0,0,1,2,3.71l-.08.48L79.39,108.61Z"/><path class="cls-2" d="M79.88,48,91,59.09a1.86,1.86,0,0,1-1.09,2.32c-1.38.6-2.94.44-4.45.76a6.11,6.11,0,0,0-4.68,5.63,8.34,8.34,0,0,0,7.41,7.49h.08a6.12,6.12,0,0,0,5.63-4.68c.32-1.51.16-3.08.76-4.45A1.75,1.75,0,0,1,96.34,65a3,3,0,0,1,.62.07L108.88,77,96.51,89.37a2.78,2.78,0,0,1-.44,0,1.7,1.7,0,0,1-1.67-1.13c-.58-1.34-.43-2.87-.74-4.34a6,6,0,0,0-5.49-4.56H88.1a8.13,8.13,0,0,0-7.23,7.3,6,6,0,0,0,4.56,5.49c1.48.31,3,.16,4.34.75A1.77,1.77,0,0,1,90.86,95L79.39,106.49,68.26,95.36a3.55,3.55,0,0,0-.94-.14,1.91,1.91,0,0,0-1.87,1.26c-.64,1.5-.48,3.2-.82,4.85a6.66,6.66,0,0,1-6.13,5.09H58.4a8.28,8.28,0,0,1-5.45-2.61s-2.66-2.38-2.61-5.54a6.66,6.66,0,0,1,5.09-6.13c1.65-.35,3.35-.18,4.85-.83a2.12,2.12,0,0,0,1.12-2.8l-11-11L61.74,66.13a2,2,0,0,0-1.11-2.59c-1.45-.63-3.1-.47-4.69-.8A6.45,6.45,0,0,1,51,56.81c0-3.06,2.53-5.37,2.53-5.37a8,8,0,0,1,5.28-2.53h.09a6.44,6.44,0,0,1,5.93,4.93c.33,1.59.18,3.24.81,4.69a1.85,1.85,0,0,0,1.81,1.22,3.32,3.32,0,0,0,.78-.1L79.88,48m0-4.24-2.12,2.12-9.68,9.68v-.15a18.54,18.54,0,0,0-.29-2.18A9.49,9.49,0,0,0,59,45.91h-.14A11.73,11.73,0,0,0,48,56.86a9.49,9.49,0,0,0,7.31,8.82,18.29,18.29,0,0,0,2.19.29h.14l-9.39,9.39-2.12,2.12,2.12,2.12,9.25,9.25-.44,0a18.79,18.79,0,0,0-2.26.3,9.71,9.71,0,0,0-7.47,9,12,12,0,0,0,11.06,11.2h.14a9.71,9.71,0,0,0,9-7.47,19.08,19.08,0,0,0,.3-2.25l0-.45,9.37,9.37,2.12,2.12,2.12-2.12L93,97.13l.69-.69.15-1A4.75,4.75,0,0,0,91,90.16a10.92,10.92,0,0,0-3.56-.76A12.31,12.31,0,0,1,86,89.23a3,3,0,0,1-2.18-2.61,4.39,4.39,0,0,1,1.36-2.7l.14-.13.07-.08a4.43,4.43,0,0,1,2.65-1.34,3,3,0,0,1,2.63,2.18,12.15,12.15,0,0,1,.17,1.35,10.91,10.91,0,0,0,.76,3.57,4.7,4.7,0,0,0,4.42,2.93,5.79,5.79,0,0,0,.91-.07l1-.15.69-.69L111,79.12,113.12,77,111,74.88,99.08,63l-.63-.63-.87-.18A6,6,0,0,0,96.34,62a4.76,4.76,0,0,0-4.46,3,11.21,11.21,0,0,0-.77,3.63A12.6,12.6,0,0,1,90.94,70a3.14,3.14,0,0,1-2.74,2.29h0a4.64,4.64,0,0,1-2.83-1.43l-.13-.14-.08-.07a4.49,4.49,0,0,1-1.4-2.81,3.13,3.13,0,0,1,2.3-2.74,12.54,12.54,0,0,1,1.39-.17,11.17,11.17,0,0,0,3.64-.77,4.81,4.81,0,0,0,2.83-5.69l-.18-.87L93.09,57,82,45.87l-2.12-2.12Z"/></g></g></svg>