<svg xmlns="http://www.w3.org/2000/svg" viewBox="0 0 153.28 153.28"><defs><style>.cls-1{fill:#1abc9c;}.cls-2{fill:#171c1f;}.cls-3{opacity:0.1;}.cls-4{fill:#e67e22;}.cls-5{fill:#fff;}.cls-6{fill:none;stroke:#171c1f;stroke-linecap:round;stroke-miterlimit:10;stroke-width:3px;}</style></defs><title>dica</title><g id="Camada_2" data-name="Camada 2"><g id="Camada_1-2" data-name="Camada 1"><g id="Yellow"><circle class="cls-1" cx="76.64" cy="77.63" r="61.72"/></g><g id="Outline"><path class="cls-2" d="M76.64,0a76.64,76.64,0,1,0,76.64,76.64A76.64,76.64,0,0,0,76.64,0Zm0,147.49a70.85,70.85,0,1,1,70.85-70.85A70.85,70.85,0,0,1,76.64,147.49Z"/></g><g id="Shadows" class="cls-3"><path d="M76.64,21a60.55,60.55,0,0,1,60.48,57.6c0-1,.07-2,.07-3a60.55,60.55,0,1,0-121.1,0c0,1,0,2,.07,3A60.55,60.55,0,0,1,76.64,21ZM149,74.17a72.34,72.34,0,0,1-144.66,0c0,.49,0,1,0,1.48a72.37,72.37,0,1,0,144.73,0C149,75.15,149,74.66,149,74.17Z"/></g><path class="cls-2" d="M76.64,142a64,64,0,1,1,64-64A64,64,0,0,1,76.64,142Zm0-124.89A60.92,60.92,0,1,0,137.56,78,61,61,0,0,0,76.64,17.1Z"/><path class="cls-2" d="M76.64,142a64,64,0,1,1,64-64A64,64,0,0,1,76.64,142Zm0-124.89A60.92,60.92,0,1,0,137.56,78,61,61,0,0,0,76.64,17.1Z"/><g id="Fill"><path class="cls-4" d="M76.64,58.51c-12,0-21.73,8.74-21.73,19.49,0,7.36,4.15,14.2,7.48,19.69,2.32,3.83,4.35,7.17,4.62,10H86.26c.27-2.85,2.3-6.19,4.62-10,3.33-5.5,7.48-12.34,7.48-19.69C98.36,67.25,88.62,58.51,76.64,58.51Z"/></g><g id="White"><path class="cls-5" d="M67,107.71c0,.22,0,.43,0,.64v8.95c0,1.19,1.39,2.8,3.63,4.19a13.68,13.68,0,0,0,6,2.2,13.68,13.68,0,0,0,6-2.2c2.24-1.39,3.63-3,3.63-4.19v-8.95c0-.21,0-.42,0-.64Z"/></g><g id="Shadows_1" data-name="Shadows 1" class="cls-3"><path d="M68.33,114.74H84.95v-1.28H68.33Zm0-3.83H84.95v-1.28H68.33Zm0,7.67h.75a10.64,10.64,0,0,0,2.28,1.82,12.69,12.69,0,0,0,5.28,2,12.69,12.69,0,0,0,5.28-2,10.64,10.64,0,0,0,2.28-1.82h.75V117.3H68.33Zm14.4,0c-.25.18-.52.36-.81.54a12.69,12.69,0,0,1-5.28,2,12.69,12.69,0,0,1-5.28-2c-.3-.18-.56-.37-.81-.54ZM97.09,78c0-10-9.17-18.21-20.45-18.21A18.07,18.07,0,0,1,94.53,78c0,7-3.39,13.39-6.39,19a24.18,24.18,0,0,0-2.82,8.77H67.95A24.18,24.18,0,0,0,65.13,97c-3-5.64-6.39-12-6.39-19A18.07,18.07,0,0,1,76.64,59.79C65.36,59.79,56.19,68,56.19,78c0,7,3.88,13.39,7.3,19,2,3.22,3.7,6.11,4.45,8.77h-.89v1.28H86.22v-1.28h-.89c.75-2.66,2.5-5.55,4.45-8.77C93.21,91.39,97.09,85,97.09,78Z"/></g><g id="Inner_Lines" data-name="Inner Lines"><path class="cls-2" d="M77.28,107.07v-5.6L83.6,88.83h0a.62.62,0,0,0,.07-.28.63.63,0,0,0-1.2-.28h0L76.64,99.89,70.82,88.25h0a.63.63,0,0,0-1.2.28.62.62,0,0,0,.07.28h0L76,101.47v5.6H67.05v1.28H86.22v-1.28Zm-10.22,5.11H86.22v-1.28H67.05Zm0,3.83H86.22v-1.28H67.05Zm0,3.83H86.22v-1.28H67.05Z"/></g><g id="Outline-2" data-name="Outline"><path class="cls-2" d="M76.64,57.23c-12.7,0-23,9.3-23,20.77,0,13.1,12.14,24,12.14,30.35v8.95c0,3.83,7.67,7.67,10.86,7.67s10.86-3.83,10.86-7.67v-8.95C87.5,102,99.64,91.1,99.64,78,99.64,66.53,89.34,57.23,76.64,57.23Zm8.31,51.12v8.95c0,.47-.82,1.73-3,3.1a12.69,12.69,0,0,1-5.28,2,12.69,12.69,0,0,1-5.28-2c-2.2-1.37-3-2.63-3-3.1v-8.95c0-3.34-2.24-7-4.84-11.32-3.42-5.64-7.3-12-7.3-19,0-10,9.17-18.21,20.45-18.21S97.09,68,97.09,78c0,7-3.88,13.39-7.3,19C87.19,101.31,84.95,105,84.95,108.35Z"/></g><line class="cls-6" x1="77.16" y1="35.21" x2="77.16" y2="50.21"/><line class="cls-6" x1="53.09" y1="42.14" x2="65.23" y2="53.28"/><line class="cls-6" x1="99.23" y1="42.14" x2="87.09" y2="53.28"/></g></g></svg>