<svg xmlns="http://www.w3.org/2000/svg" viewBox="0 0 17.07 17.07"><defs><style>.cls-1{fill:#e74c3c;}.cls-2{fill:#485761;}.cls-3{fill:#171c1f;}.cls-4{opacity:0.1;}</style></defs><title>errado</title><g id="Camada_2" data-name="Camada 2"><g id="Camada_1-2" data-name="Camada 1"><g id="Red"><polygon class="cls-1" points="16.65 2.91 14.15 0.42 8.53 6.04 2.91 0.42 0.42 2.91 6.04 8.53 0.42 14.15 2.91 16.65 8.53 11.03 14.15 16.65 16.65 14.15 11.03 8.53 16.65 2.91"/></g><g id="Dark_Blue" data-name="Dark Blue"><path class="cls-2" d="M3.54,13.11a5.6,5.6,0,0,0-2.42.55l-.49.49,2.29,2.29,2.86-2.86A5.6,5.6,0,0,0,3.54,13.11Z"/></g><g id="Inner_Lines" data-name="Inner Lines"><path class="cls-3" d="M3.54,12.7a6,6,0,0,0-1.7.24l-.72.72a5.63,5.63,0,0,1,4.66-.08l.31-.31A6,6,0,0,0,3.54,12.7Z"/></g><g id="Shadows" class="cls-4"><path d="M5.62,7.91v.62h.83V7.91h0L1.14,2.6l-.31.31,5,5Zm5.83,0h-.21l5-5-.31-.31L10.61,7.91v.62h.83Zm2.71,7.7-5-5L8.53,10,2.91,15.61,1.14,13.84l-.31.31,2.08,2.08,5-5,.59-.59,5.62,5.62,2.08-2.08-.31-.31Z"/></g><g id="Outline"><path class="cls-3" d="M11.79,8.53l5-5a.83.83,0,0,0,0-1.18L14.74.24a.83.83,0,0,0-1.18,0l-5,5-5-5a.83.83,0,0,0-1.18,0L.24,2.33a.83.83,0,0,0,0,1.18l5,5-5,5a.83.83,0,0,0,0,1.18l2.08,2.08a.83.83,0,0,0,1.18,0l5-5,5,5a.83.83,0,0,0,1.18,0l2.08-2.08a.83.83,0,0,0,0-1.18Zm2.36,7.7L8.53,10.61l-.59.59-5,5L.83,14.15l5-5,.59-.59-.59-.59-5-5L2.91.83l5,5,.59.59.59-.59,5-5h0l2.08,2.08-5,5-.59.59,5.62,5.62Z"/></g></g></g></svg>