<svg xmlns="http://www.w3.org/2000/svg" viewBox="0 0 153.28 153.28"><defs><style>.cls-1{fill:#1abc9c;}.cls-2{fill:#171c1f;}.cls-3{opacity:0.1;}.cls-4{fill:#e67e22;}.cls-5{fill-rule:evenodd;}.cls-6{opacity:0.2;}</style></defs><title>fundamental</title><g id="Camada_2" data-name="Camada 2"><g id="Camada_1-2" data-name="Camada 1"><g id="Yellow"><circle class="cls-1" cx="76.64" cy="77.63" r="61.72"/></g><g id="Outline"><path class="cls-2" d="M76.64,0a76.64,76.64,0,1,0,76.64,76.64A76.64,76.64,0,0,0,76.64,0Zm0,147.49a70.85,70.85,0,1,1,70.85-70.85A70.85,70.85,0,0,1,76.64,147.49Z"/></g><g id="Shadows" class="cls-3"><path d="M76.64,21a60.55,60.55,0,0,1,60.48,57.6c0-1,.07-2,.07-3a60.55,60.55,0,0,0-121.1,0c0,1,0,2,.07,3A60.55,60.55,0,0,1,76.64,21ZM149,74.17a72.34,72.34,0,0,1-144.66,0c0,.49,0,1,0,1.48a72.37,72.37,0,1,0,144.73,0C149,75.15,149,74.66,149,74.17Z"/></g><path class="cls-2" d="M76.64,142a64,64,0,1,1,64-64A64,64,0,0,1,76.64,142Zm0-124.89A60.92,60.92,0,1,0,137.56,78,61,61,0,0,0,76.64,17.1Z"/><path class="cls-2" d="M76.64,142a64,64,0,1,1,64-64A64,64,0,0,1,76.64,142Zm0-124.89A60.92,60.92,0,1,0,137.56,78,61,61,0,0,0,76.64,17.1Z"/><g id="Shadows-2" data-name="Shadows" class="cls-3"><path d="M137.51,76.52a60.86,60.86,0,0,1-121.7,0c0,.41,0,.83,0,1.24a60.88,60.88,0,0,0,121.76,0C137.55,77.34,137.52,76.93,137.51,76.52Z"/></g><g id="White"><path class="cls-4" d="M105.39,71a3.4,3.4,0,0,0-1.92-5.73L87.91,62.87l-.57-.09-.25-.52L80.18,47.48a3.39,3.39,0,0,0-6.14,0L67.11,62.26l-.25.52-.57.09L50.74,65.25A3.4,3.4,0,0,0,48.82,71l11.4,11.7.38.39-.09.54-2.68,16.48a3.39,3.39,0,0,0,5,3.51L76.58,96l.52-.29.52.29,13.75,7.62a3.4,3.4,0,0,0,5-3.52L93.7,83.61l-.09-.54.38-.39Z"/></g><g id="Inner_Lines_1" data-name="Inner Lines 1"><path class="cls-2" d="M107.19,67.18a4.46,4.46,0,0,0-3.57-3L88.07,61.8,81.15,47A4.47,4.47,0,0,0,73,47L66.13,61.8,50.57,64.18A4.48,4.48,0,0,0,48,71.74l11.4,11.7L56.76,99.92a4.47,4.47,0,0,0,6.59,4.63L77.1,96.93l13.75,7.62a4.48,4.48,0,0,0,6.59-4.64L94.76,83.44l11.4-11.7A4.46,4.46,0,0,0,107.19,67.18Zm-2.59,3-11.4,11.7-.76.78.18,1.08,2.68,16.47A2.32,2.32,0,0,1,93,102.95a2.34,2.34,0,0,1-1.12-.29L78.15,95l-1-.58L76,95l-13.76,7.62a2.31,2.31,0,0,1-3.4-2.39l2.68-16.48.18-1.08L61,81.93l-11.4-11.7a2.31,2.31,0,0,1,1.31-3.9l15.55-2.38,1.14-.18.49-1L75,47.94a2.31,2.31,0,0,1,4.18,0l6.92,14.78.49,1,1.14.18,15.56,2.38a2.31,2.31,0,0,1,1.31,3.9Z"/></g><path class="cls-5" d="M93.86,103a2.28,2.28,0,0,0,.37-.63l.15.93A2.32,2.32,0,0,1,92.1,106a2.34,2.34,0,0,1-1.12-.29L77.23,98.1l-1-.58-1,.58-13.76,7.62a2.31,2.31,0,0,1-3.4-2.39l.15-.93a2.28,2.28,0,0,0,.37.63,2.3,2.3,0,0,0,2.88.53l13.76-7.62,1-.58,1,.58L91,103.55a2.33,2.33,0,0,0,1.12.29A2.31,2.31,0,0,0,93.86,103Z"/><path class="cls-5" d="M60.53,85.47,60.07,85l-11.4-11.7a2.14,2.14,0,0,1-.37-2.67,2.33,2.33,0,0,0,.37.51l11.4,11.7.76.78-.18,1.08Z"/><g class="cls-6"><path class="cls-5" d="M94.44,87.46l-.6-3.71L105.23,72a4.5,4.5,0,0,0,.69-.92,4.19,4.19,0,0,1-.69,5.26Z"/><path class="cls-5" d="M92.29,85l-.46.47-.13-.78-.18-1.08.76-.78,11.4-11.7a2.32,2.32,0,0,0,.37-.51,2.14,2.14,0,0,1-.37,2.67Z"/><path class="cls-5" d="M56.84,102.92a4.46,4.46,0,0,0,5.58,1l13.76-7.62,13.75,7.62a4.47,4.47,0,0,0,5.59-1,4.42,4.42,0,0,0,.7-1.19l.31,1.9a4.47,4.47,0,0,1-6.59,4.64l-13.75-7.62-13.76,7.62a4.48,4.48,0,0,1-6.59-4.63l.31-1.9A4.43,4.43,0,0,0,56.84,102.92Z"/><path class="cls-5" d="M57.91,86.54,47.12,75.46a4.19,4.19,0,0,1-.69-5.26,4.5,4.5,0,0,0,.69.92l11.4,11.7Z"/></g></g></g></svg>