<svg xmlns="http://www.w3.org/2000/svg" viewBox="0 0 153.28 153.28"><defs><style>.cls-1{fill:#1abc9c;}.cls-2{fill:#171c1f;}.cls-3{opacity:0.1;}.cls-4{fill:#fff;}.cls-5{fill:#ffc868;}.cls-6{fill:#ff7575;}.cls-7{opacity:0.25;}</style></defs><title>icon-03</title><g id="Camada_2" data-name="Camada 2"><g id="Camada_1-2" data-name="Camada 1"><g id="Yellow"><circle class="cls-1" cx="76.64" cy="77.63" r="61.72"/></g><g id="Outline"><path class="cls-2" d="M76.64,0a76.64,76.64,0,1,0,76.64,76.64A76.64,76.64,0,0,0,76.64,0Zm0,147.49a70.85,70.85,0,1,1,70.85-70.85A70.85,70.85,0,0,1,76.64,147.49Z"/></g><g id="Shadows" class="cls-3"><path d="M76.64,21a60.55,60.55,0,0,1,60.48,57.6c0-1,.07-2,.07-3a60.55,60.55,0,1,0-121.1,0c0,1,0,2,.07,3A60.55,60.55,0,0,1,76.64,21ZM149,74.17a72.34,72.34,0,0,1-144.66,0c0,.49,0,1,0,1.48a72.37,72.37,0,0,0,144.73,0C149,75.15,149,74.66,149,74.17Z"/></g><path class="cls-2" d="M76.64,142a64,64,0,1,1,64-64A64,64,0,0,1,76.64,142Zm0-124.89A60.92,60.92,0,1,0,137.56,78,61,61,0,0,0,76.64,17.1Z"/><path class="cls-2" d="M76.64,142a64,64,0,1,1,64-64A64,64,0,0,1,76.64,142Zm0-124.89A60.92,60.92,0,1,0,137.56,78,61,61,0,0,0,76.64,17.1Z"/><g id="Fill"><rect class="cls-4" x="52.58" y="54.13" width="45.68" height="53.29" rx="2.54" ry="2.54"/></g><g id="Yellow-2" data-name="Yellow"><rect class="cls-5" x="71.47" y="62.52" width="42.17" height="9.87" transform="translate(-20.59 85.2) rotate(-45)"/></g><g id="Red"><rect class="cls-6" x="106.54" y="45.39" width="6.28" height="9.87" transform="translate(-3.46 92.3) rotate(-45)"/></g><g id="Inner_Lines_1" data-name="Inner Lines 1"><path class="cls-2" d="M73.07,78.69l8.25,8.25.9-.9L74,77.79Zm31.35-30.08-.9.9,7,7,.9-.9Z"/></g><g id="Inner_Lines_2" data-name="Inner Lines 2" class="cls-7"><path class="cls-2" d="M72.42,80.69l.1,0,.36-1.18,0,0H57.66v1.27H72.38Zm4.91-5.62v-.63H57.66V75.7h19ZM88.11,90.93V89.66h-14L71,90.93ZM72.88,59.21H57.66v1.27H72.88ZM83,69.36H57.66v1.27H81.77Zm5.08-5.08H57.66v1.27H86.84ZM68.83,89.66H57.66v1.27H68.32Zm18-8.88h6.34V79.51H88.11Zm-4,4-7.61-7.61-.9.9L82,85.67l-.19.19H93.19V84.58H83Zm-12-.19H57.66v1.27H70.35ZM105.69,48l-.9.9,6.34,6.34.9-.9Zm-48,48H93.19V94.74H57.66Zm0,5.08H83V99.81H57.66Z"/></g><g id="Shadows-2" data-name="Shadows" class="cls-3"><path d="M72.88,88.81,79.78,86l34.45-34.45-1-1-33.5,33.5L72.88,86.9V85.22H72l-.76,1.9h1.68Zm22.84,17.35H55.12a2.54,2.54,0,0,1-2.54-2.54v1.27a2.54,2.54,0,0,0,2.54,2.54h40.6a2.54,2.54,0,0,0,2.54-2.54v-1.27A2.54,2.54,0,0,1,95.72,106.16ZM81.38,88a1.27,1.27,0,0,1-.51.32h0L68.23,93.39h-.05a1.22,1.22,0,0,1-1.12-.19l-.4,1,0,.09,0,.07h0a1.25,1.25,0,0,0,1.58,1.58h.05l12.64-5.06h0a1.27,1.27,0,0,0,.51-.32h0L98.26,73.69V71.15L81.39,88Z"/></g><g id="Outline-2" data-name="Outline"><path class="cls-2" d="M116.92,50.7l-7.61-7.61a1.27,1.27,0,0,0-1.79,0L98.3,52.3a5,5,0,0,0-2.57-.71H55.12A5.08,5.08,0,0,0,50,56.67v48.22A5.08,5.08,0,0,0,55.12,110h40.6a5.08,5.08,0,0,0,5.08-5.08V68.62l16.12-16.12a1.27,1.27,0,0,0,0-1.79ZM98.26,104.89a2.54,2.54,0,0,1-2.54,2.54H55.12a2.54,2.54,0,0,1-2.54-2.54V56.67a2.54,2.54,0,0,1,2.54-2.54h40.6a2.52,2.52,0,0,1,.65.09L72,78.61h0a1.27,1.27,0,0,0-.32.51h0l-5,12.53,0,.09,0,.07h0a1.26,1.26,0,0,0-.06.37,1.27,1.27,0,0,0,1.27,1.27,1.25,1.25,0,0,0,.37-.06h.05l12.64-5.06h0a1.27,1.27,0,0,0,.51-.32h0L98.26,71.15ZM79.78,86l-6.89,2.76V87.12H71.2L74,80.23l34.45-34.45,5.82,5.82Z"/></g></g></g></svg>