<svg xmlns="http://www.w3.org/2000/svg" viewBox="0 0 153.28 153.28"><defs><style>.cls-1{fill:#1abc9c;}.cls-2{fill:#171c1f;}.cls-3{opacity:0.1;}.cls-4{fill:#fff;}.cls-5{fill:#e67e22;}</style></defs><title>importante</title><g id="Camada_2" data-name="Camada 2"><g id="Camada_1-2" data-name="Camada 1"><g id="Yellow"><circle class="cls-1" cx="76.64" cy="77.63" r="61.72"/></g><g id="Outline"><path class="cls-2" d="M76.64,0a76.64,76.64,0,1,0,76.64,76.64A76.64,76.64,0,0,0,76.64,0Zm0,147.49a70.85,70.85,0,1,1,70.85-70.85A70.85,70.85,0,0,1,76.64,147.49Z"/></g><g id="Shadows" class="cls-3"><path d="M149,74.17a72.34,72.34,0,0,1-144.66,0c0,.49,0,1,0,1.48a72.37,72.37,0,1,0,144.73,0C149,75.15,149,74.66,149,74.17ZM76.64,21a60.55,60.55,0,0,1,60.48,57.6c0-1,.07-2,.07-3a60.55,60.55,0,0,0-121.1,0c0,1,0,2,.07,3A60.55,60.55,0,0,1,76.64,21Z"/></g><path class="cls-2" d="M76.64,142a64,64,0,1,1,64-64A64,64,0,0,1,76.64,142Zm0-124.89A60.92,60.92,0,1,0,137.56,78,61,61,0,0,0,76.64,17.1Z"/><path class="cls-2" d="M76.64,142a64,64,0,1,1,64-64A64,64,0,0,1,76.64,142Zm0-124.89A60.92,60.92,0,1,0,137.56,78,61,61,0,0,0,76.64,17.1Z"/><path class="cls-4" d="M68.84,109.94V95.77H84.57v14.17Zm0-21.9V43.44H84.57V88Z"/><path class="cls-5" d="M83.07,86.55H70.34V44.94H83.07Zm0,21.9H70.34V97.27H83.07Z"/><path class="cls-2" d="M83.07,44.94V86.55H70.34V44.94H83.07m0,52.34v11.17H70.34V97.27H83.07m3-55.34H67.34V89.55H86.07V41.94Zm0,52.34H67.34v17.17H86.07V94.27Z"/></g></g></svg>