<svg xmlns="http://www.w3.org/2000/svg" viewBox="0 0 124.69 124.69"><defs><style>.cls-1{fill:#1abc9c;}.cls-2{fill:#171c1f;}.cls-3{opacity:0.1;}.cls-4{fill:#fff;}.cls-5{fill:#70cbf6;}.cls-6{fill:#ffc868;}.cls-7{fill:#242424;}</style></defs><title>link</title><g id="Camada_2" data-name="Camada 2"><g id="Camada_1-2" data-name="Camada 1"><g id="Yellow"><circle class="cls-1" cx="62.34" cy="63.15" r="50.21"/></g><g id="Outline"><path class="cls-2" d="M62.34,0a62.34,62.34,0,1,0,62.34,62.34A62.34,62.34,0,0,0,62.34,0Zm0,120A57.64,57.64,0,1,1,120,62.34,57.64,57.64,0,0,1,62.34,120Z"/></g><g id="Shadows" class="cls-3"><path d="M62.34,17.09a49.26,49.26,0,0,1,49.2,46.86c0-.8.06-1.6.06-2.4a49.26,49.26,0,0,0-98.52,0c0,.81,0,1.61.06,2.4A49.26,49.26,0,0,1,62.34,17.09Zm58.84,43.25a58.85,58.85,0,0,1-117.68,0c0,.4,0,.8,0,1.2a58.87,58.87,0,1,0,117.74,0C121.21,61.13,121.19,60.74,121.18,60.34Z"/></g><path class="cls-2" d="M62.34,115.5a52,52,0,1,1,52-52A52.1,52.1,0,0,1,62.34,115.5Zm0-101.59A49.56,49.56,0,1,0,111.9,63.47,49.61,49.61,0,0,0,62.34,13.91Z"/><path class="cls-2" d="M62.34,115.5a52,52,0,1,1,52-52A52.1,52.1,0,0,1,62.34,115.5Zm0-101.59A49.56,49.56,0,1,0,111.9,63.47,49.61,49.61,0,0,0,62.34,13.91Z"/><g id="Fill"><path class="cls-4" d="M88,63.42,75.5,50.93A12.49,12.49,0,0,0,60.1,49.15l-5-5A12.49,12.49,0,0,0,37.39,61.78L49.89,74.28a12.49,12.49,0,0,0,15.41,1.78l5,5A12.49,12.49,0,0,0,88,63.42ZM53.88,70.25l-.05-.06L41.41,57.77h0A6.81,6.81,0,1,1,51,48.13l0,0,5,5A12.49,12.49,0,0,0,57.84,68.6l3.22,3.22A6.81,6.81,0,0,1,53.88,70.25Zm11.2-2.43-3.24-3.24h0a6.8,6.8,0,0,1-1.56-7.19l3.17,3.17.06.05A6.81,6.81,0,0,1,65.09,67.82ZM84,77.06a6.82,6.82,0,0,1-9.64,0L74.27,77l-5-5a12.49,12.49,0,0,0-1.76-15.44l-3.23-3.23a6.8,6.8,0,0,1,7.17,1.57l0,0L83.91,67.37l.06.05A6.82,6.82,0,0,1,84,77.06Z"/></g><g id="Blue"><path class="cls-5" d="M33.79,51.76a12.44,12.44,0,0,0,7.43-3.4l.2-.22.21-.19A12.44,12.44,0,0,0,45,40.52,12.49,12.49,0,0,0,33.79,51.76ZM63.73,70l-.2.22-.21.19a12.44,12.44,0,0,0-3.4,7.42A12.49,12.49,0,0,0,71.15,66.64,12.44,12.44,0,0,0,63.73,70Z"/></g><g id="Green"><path class="cls-6" d="M54.23,58.57a12.44,12.44,0,0,0,7.43-3.4l.2-.22.21-.19a12.44,12.44,0,0,0,3.4-7.42A12.49,12.49,0,0,0,54.23,58.57ZM84.17,76.86l-.2.22-.21.19a12.44,12.44,0,0,0-3.4,7.42A12.49,12.49,0,0,0,91.6,73.45,12.44,12.44,0,0,0,84.17,76.86Z"/></g><g id="Inner_Lines" data-name="Inner Lines"><path class="cls-7" d="M41.63,47.94a6.77,6.77,0,0,1,2.57-1.49,13.52,13.52,0,0,0,2-6c-.38,0-.76,0-1.14.05A12.44,12.44,0,0,1,41.63,47.94Zm-7.89,5a13.52,13.52,0,0,0,6-2,6.77,6.77,0,0,1,1.48-2.57,12.44,12.44,0,0,1-7.43,3.4C33.76,52.13,33.74,52.51,33.74,52.89Zm27.92,2.27a12.44,12.44,0,0,1-7.43,3.4c0,.38-.05.76-.05,1.14a13.52,13.52,0,0,0,6-2A6.77,6.77,0,0,1,61.66,55.16Zm5-7.89c-.38,0-.76,0-1.14.05a12.44,12.44,0,0,1-3.4,7.42,6.77,6.77,0,0,1,2.57-1.49A13.52,13.52,0,0,0,66.61,47.28ZM79.22,84.75c.38,0,.76,0,1.14-.05a12.44,12.44,0,0,1,3.4-7.42,6.77,6.77,0,0,1-2.57,1.49A13.52,13.52,0,0,0,79.22,84.75Zm6.43-10.46a6.77,6.77,0,0,1-1.48,2.57,12.44,12.44,0,0,1,7.43-3.4c0-.38.05-.76.05-1.14A13.53,13.53,0,0,0,85.65,74.29ZM58.78,77.93c.38,0,.76,0,1.14-.05a12.44,12.44,0,0,1,3.4-7.42,6.77,6.77,0,0,1-2.57,1.49A13.52,13.52,0,0,0,58.78,77.93Zm5-7.89a12.44,12.44,0,0,1,7.43-3.4c0-.38.05-.76.05-1.14a13.52,13.52,0,0,0-6,2A6.77,6.77,0,0,1,63.73,70Z"/></g><g id="Shadows-2" data-name="Shadows" class="cls-3"><path d="M60.92,55.31l-.47.67,3.74,3.76.08.08a7.9,7.9,0,0,1,2.29,5.06c0-.19,0-.38,0-.57a7.92,7.92,0,0,0-2.32-5.62l-.08-.08Zm.18-1.17a7.89,7.89,0,0,1,11.19,0l0,0,0,0,12.3,12.35.08.08A7.9,7.9,0,0,1,87,71.68c0-.19,0-.38,0-.57a7.92,7.92,0,0,0-2.32-5.62l-.08-.08L72.34,53.06l0,0,0,0a7.91,7.91,0,0,0-13.51,5.62c0,.21,0,.42,0,.62A7.89,7.89,0,0,1,61.1,54.14Zm-5.72,5.62a11.31,11.31,0,0,0,3.31,8l3.87,3.89.59-.54-4.46-4.48a11.29,11.29,0,0,1-3.29-7.46C55.4,59.39,55.38,59.57,55.38,59.76ZM70,65.44c0-.19,0-.38,0-.57a11.29,11.29,0,0,1-19.28,7.46L38.25,59.85A11.29,11.29,0,0,1,35,52.38c0,.19,0,.38,0,.57a11.31,11.31,0,0,0,3.31,8L50.69,73.47a11.31,11.31,0,0,0,19.31-8Zm20.41,6.25a11.29,11.29,0,0,1-19.28,7.46l-4.77-4.79-.59.54,5.36,5.38a11.31,11.31,0,0,0,19.31-8C90.44,72.07,90.42,71.88,90.41,71.69ZM40.66,47.33a7.89,7.89,0,0,1,11.19,0l0,0,0,0,5.3,5.32.47-.67L51.9,46.25l0,0,0,0a7.91,7.91,0,0,0-13.51,5.62c0,.21,0,.42,0,.62A7.89,7.89,0,0,1,40.66,47.33Z"/></g><g id="Outline-2" data-name="Outline"><path class="cls-2" d="M88.8,62.62,76.3,50.13a13.63,13.63,0,0,0-16-2.4l-4.41-4.41A13.63,13.63,0,0,0,36.59,62.59L49.08,75.08a13.63,13.63,0,0,0,16,2.4l4.41,4.41A13.63,13.63,0,0,0,88.8,62.62ZM50.67,73.47l-.12-.13L38.31,61.1,38.18,61A11.37,11.37,0,0,1,54.25,44.91l.12.13,4,4a12.39,12.39,0,0,0-2.41,2.41l-4.07-4.07A7.95,7.95,0,1,0,40.61,58.57L53.1,71.06A7.95,7.95,0,1,0,64.34,59.82l-2.71-2.71A5.7,5.7,0,0,1,64,54.71l2.57,2.57.13.12A11.37,11.37,0,0,1,50.67,73.47ZM57,69.4l1.72,1.72a5.67,5.67,0,0,1-4.07-1.66l-.15-.17L42.37,57.12,42.2,57a5.69,5.69,0,0,1,8-8l.15.17,4.25,4.25A13.63,13.63,0,0,0,57,69.4Zm5.78-5.47-.17-.15A5.67,5.67,0,0,1,61,59.67l1.59,1.59.17.15a5.67,5.67,0,0,1,1.66,4.11Zm5.55-8.13-1.74-1.74a5.67,5.67,0,0,1,4.07,1.66l.15.17L83,68.07l.17.15a5.69,5.69,0,0,1-8,8L75,76.1l-4.24-4.24A13.63,13.63,0,0,0,68.36,55.81ZM87.19,80.28a11.37,11.37,0,0,1-16.07,0L71,80.15l-3.94-3.94a12.39,12.39,0,0,0,2.41-2.41l4.07,4.07A7.95,7.95,0,0,0,84.78,66.64L72.29,54.14A7.95,7.95,0,0,0,61,65.39l2.7,2.7a5.71,5.71,0,0,1-2.42,2.4l-2.58-2.58-.13-.12A11.37,11.37,0,0,1,74.7,51.72l.12.13L87.06,64.09l.13.12A11.37,11.37,0,0,1,87.19,80.28Z"/></g></g></g></svg>