<svg xmlns="http://www.w3.org/2000/svg" viewBox="0 0 153.28 153.28"><defs><style>.cls-1{fill:#1abc9c;}.cls-2{fill:#171c1f;}.cls-3{opacity:0.1;}.cls-4{fill:#eee;}.cls-5{fill:#fff;}.cls-6{fill:#e67e22;}.cls-7{font-size:10.63px;font-family:Roboto-Bold, Roboto;font-weight:700;}.cls-7,.cls-8{fill:#d35400;}.cls-8{stroke:#171c1f;stroke-miterlimit:10;stroke-width:2px;}</style></defs><title>link_pdf_normal</title><g id="Camada_2" data-name="Camada 2"><g id="Camada_1-2" data-name="Camada 1"><g id="Yellow"><circle class="cls-1" cx="76.64" cy="77.63" r="61.72"/></g><g id="Outline"><path class="cls-2" d="M76.64,0a76.64,76.64,0,1,0,76.64,76.64A76.64,76.64,0,0,0,76.64,0Zm0,147.49a70.85,70.85,0,1,1,70.85-70.85A70.85,70.85,0,0,1,76.64,147.49Z"/></g><g id="Shadows" class="cls-3"><path d="M149,74.17a72.34,72.34,0,0,1-144.66,0c0,.49,0,1,0,1.48a72.37,72.37,0,1,0,144.73,0C149,75.15,149,74.66,149,74.17ZM76.64,21a60.55,60.55,0,0,1,60.48,57.6c0-1,.07-2,.07-3a60.55,60.55,0,0,0-121.1,0c0,1,0,2,.07,3A60.55,60.55,0,0,1,76.64,21Z"/></g><path class="cls-2" d="M76.64,142a64,64,0,1,1,64-64A64,64,0,0,1,76.64,142Zm0-124.89A60.92,60.92,0,1,0,137.56,78,61,61,0,0,0,76.64,17.1Z"/><path class="cls-2" d="M76.64,142a64,64,0,1,1,64-64A64,64,0,0,1,76.64,142Zm0-124.89A60.92,60.92,0,1,0,137.56,78,61,61,0,0,0,76.64,17.1Z"/><g id="Fill_2" data-name="Fill 2"><rect class="cls-4" x="47.24" y="47.09" width="39.85" height="52.3"/></g><g id="Fill_1" data-name="Fill 1"><polygon class="cls-5" points="95.86 55.8 64.68 55.8 64.68 108.11 104.53 108.11 104.53 64.52 95.86 55.8"/></g><g id="Yellow-2" data-name="Yellow"><polygon class="cls-6" points="93.32 54.56 93.32 67.01 105.77 67.01 93.32 54.56"/></g><g id="Shadows-2" data-name="Shadows" class="cls-3"><path d="M86.26,54.06V51.57H63.84a5,5,0,0,0-5,5V98.89H46.41v1.25H61.35V56.55a2.49,2.49,0,0,1,2.49-2.49Zm6.23,1.25H88.75V68.38a3.11,3.11,0,0,0,3.11,3.11h13.08V67.76ZM63.84,108.86h39.85v-1.25H63.84Z"/></g><g id="Outline-2" data-name="Outline"><path class="cls-2" d="M106.65,66.13,94.2,53.68a1.24,1.24,0,0,0-.88-.36H89.58V47.09a2.49,2.49,0,0,0-2.49-2.49H47.24a2.49,2.49,0,0,0-2.49,2.49v52.3a2.49,2.49,0,0,0,2.49,2.49H62.19v6.23a2.49,2.49,0,0,0,2.49,2.49h39.85a2.49,2.49,0,0,0,2.49-2.49V67A1.24,1.24,0,0,0,106.65,66.13ZM93.32,56.32,104,67H93.32ZM62.19,55.8V99.39H47.24V47.09H87.09v6.23H64.68A2.49,2.49,0,0,0,62.19,55.8Zm42.34,52.3H64.68V55.8h27.4V67.63a.62.62,0,0,0,.62.62h11.83Z"/></g><text class="cls-7" transform="translate(74.26 86.62)">PDF</text><circle class="cls-8" cx="97.76" cy="111.41" r="12.33"/><path class="cls-1" d="M103.64,113h-2.57a.87.87,0,0,1-.85-.89v-7.33a.88.88,0,0,0-.85-.9H95.6a.88.88,0,0,0-.86.9v7.33a.87.87,0,0,1-.85.89H91.28c-.47,0-.59.3-.28.67l6.17,6.41a.69.69,0,0,0,1.11,0l5.7-6.34C104.26,113.32,104.11,113,103.64,113Z"/><path class="cls-2" d="M97.7,121.14h0a1.53,1.53,0,0,1-1.15-.54l-6.14-6.38a1.24,1.24,0,0,1-.3-1.38,1.19,1.19,0,0,1,1.16-.66h2.61a.09.09,0,0,0,0-.08v-7.33a1.69,1.69,0,0,1,1.67-1.7h3.78a1.68,1.68,0,0,1,1.66,1.7v7.33a.09.09,0,0,0,0,.08h2.57a1.24,1.24,0,0,1,1.17.66,1.27,1.27,0,0,1-.21,1.35l-5.73,6.39A1.47,1.47,0,0,1,97.7,121.14Zm-5.45-7.34,5.45,5.66,5.08-5.66h-1.7a1.68,1.68,0,0,1-1.66-1.69v-7.33a.09.09,0,0,0,0-.09H95.6s-.05,0-.05.09v7.33a1.68,1.68,0,0,1-1.66,1.69Z"/></g></g></svg>