<svg xmlns="http://www.w3.org/2000/svg" viewBox="0 0 153.28 153.28"><defs><style>.cls-1{fill:#e67e22;}.cls-2{fill:#171c1f;}.cls-3{opacity:0.1;}.cls-4{fill:#f9f9f9;}.cls-5{opacity:0.1;}.cls-6{fill:#1abc9c;}.cls-7{fill:#fff;}.cls-8{fill:#16a085;}</style></defs><title>nao_curtir</title><g id="Camada_2" data-name="Camada 2"><g id="Camada_1-2" data-name="Camada 1"><g id="Yellow"><circle class="cls-1" cx="76.64" cy="77.63" r="61.72"/></g><g id="Outline"><path class="cls-2" d="M76.64,0a76.64,76.64,0,1,0,76.64,76.64A76.64,76.64,0,0,0,76.64,0Zm0,147.49a70.85,70.85,0,1,1,70.85-70.85A70.85,70.85,0,0,1,76.64,147.49Z"/></g><g id="Shadows" class="cls-3"><path d="M149,74.17a72.34,72.34,0,0,1-144.66,0c0,.49,0,1,0,1.48a72.37,72.37,0,1,0,144.73,0C149,75.15,149,74.66,149,74.17ZM76.64,21a60.55,60.55,0,0,1,60.48,57.6c0-1,.07-2,.07-3a60.55,60.55,0,0,0-121.1,0c0,1,0,2,.07,3A60.55,60.55,0,0,1,76.64,21Z"/></g><path class="cls-2" d="M76.64,142a64,64,0,1,1,64-64A64,64,0,0,1,76.64,142Zm0-124.89A60.92,60.92,0,1,0,137.56,78,61,61,0,0,0,76.64,17.1Z"/><path class="cls-2" d="M76.64,142a64,64,0,1,1,64-64A64,64,0,0,1,76.64,142Zm0-124.89A60.92,60.92,0,1,0,137.56,78,61,61,0,0,0,76.64,17.1Z"/><path class="cls-2" d="M92.8,113a5.19,5.19,0,0,1-1.17.1c-.08,0-.21.07-.33,0a5.26,5.26,0,0,1-.76-.21l-.2-.06a6.3,6.3,0,0,1-.9-.5A7.06,7.06,0,0,1,86.59,108c-.07-.35-.13-.7-.19-1a11.59,11.59,0,0,0-2.74-6.32c-.68-.87-1.07-1.43-1.35-1.81-.14-.21-.21-.3-.26-.37l-.07,0a16,16,0,0,1-3.52-3.37,46.41,46.41,0,0,1-3-4.38L75,90A36.65,36.65,0,0,0,71.9,85.4c-.08-.1-.16-.38-.23-.38H68.51a6.86,6.86,0,0,1-4.35,2H47.84a5,5,0,0,1-1.54,0,2,2,0,0,1-.47-.1,4.63,4.63,0,0,1-.63-.23,5.3,5.3,0,0,1-.81-.51h0l-.11-.08a5.73,5.73,0,0,1-.6-.57l-.2-.23a5.68,5.68,0,0,1-.4-.55c-.07-.1-.15-.25-.22-.4a4.57,4.57,0,0,1-.25-.51,5.25,5.25,0,0,1-.18-.54c-.06-.21-.09-.33-.12-.45a5.68,5.68,0,0,1-.11-1.1,3,3,0,0,1,0-.46L46,57.1a3.78,3.78,0,0,1,.13-.81A5.5,5.5,0,0,1,51.59,52h12A2.44,2.44,0,0,0,64,52a2.9,2.9,0,0,1,.8-.05,3.11,3.11,0,0,1,.38.05,3.06,3.06,0,0,1,1.05.25,2.89,2.89,0,0,1,.43.19,2.86,2.86,0,0,1,.51.28,4.85,4.85,0,0,1,.5.36,2.63,2.63,0,0,1,.26.22,5.39,5.39,0,0,1,.51.54l.17.22a5.2,5.2,0,0,1,.43.67h0a3,3,0,0,1,.3.46h1.4a2.05,2.05,0,0,0,.73-.3c.12-.08.28-.3.47-.42A6.49,6.49,0,0,1,75.87,53h25.65l.43.08a8.92,8.92,0,0,1,2.64.49l.23.08a2.93,2.93,0,0,1,.56.22,6.76,6.76,0,0,1,3.65,5,8.06,8.06,0,0,1,0,2.87,7.85,7.85,0,0,1,1.77,3.81,8.45,8.45,0,0,1-.12,3.55,7.66,7.66,0,0,1,.91,1.39,9.1,9.1,0,0,1,.89,3,7.58,7.58,0,0,1-.61,4.38A8.71,8.71,0,0,1,113,82.21c0,5.12-3.94,8.46-10,8.5l-6.53,0,.15.17c1.82,2,3.31,6.55,3.78,9.78.56,3.83-.84,9.14-4.08,11.42a5.73,5.73,0,0,1-3.47.9Z"/><path class="cls-4" d="M101.15,55.95l.37,0c1.18.08,4,.27,4.57,3.47a4.45,4.45,0,0,1-.54,3.26,4.67,4.67,0,0,1,2.33,3.36,4.87,4.87,0,0,1-.81,3.86,4.86,4.86,0,0,1,2.47,3.92,4.21,4.21,0,0,1-1.45,4.1A5.09,5.09,0,0,1,110,82.21c0,4.72-4.62,5.48-7.06,5.5l-8.45,0c-.06,0-1.41,0-1.52.92a4.88,4.88,0,0,0,1.38,4.26c1.25,1.39,2.61,5.24,3,8.21s-.7,7.26-2.83,8.76a3,3,0,0,1-1.75.59,3.64,3.64,0,0,1-3.27-3c-.07-.37-.14-.75-.2-1.11A14.23,14.23,0,0,0,86,98.83c-1.63-2.08-1.46-2.22-2.28-2.81A13.21,13.21,0,0,1,80.8,93.2,45.06,45.06,0,0,1,78,89a44.12,44.12,0,0,0-3.82-5.6,8,8,0,0,0-1.38-1.35H66.7a1,1,0,0,1-1-1V59.23a1,1,0,0,1,1-1h4.59A5.64,5.64,0,0,0,73.61,57a3.86,3.86,0,0,1,2.27-1.07Z"/><path class="cls-5" d="M109.54,73.85a4.86,4.86,0,0,0-2.47-3.92,4.86,4.86,0,0,0,.81-3.86,4.67,4.67,0,0,0-2.33-3.36,4.45,4.45,0,0,0,.54-3.26c-.61-3.21-3.38-3.39-4.57-3.47l-.37,0H97.75l.37,0c1.18.08,4,.27,4.57,3.47a4.45,4.45,0,0,1-.54,3.26,4.67,4.67,0,0,1,2.33,3.36,4.87,4.87,0,0,1-.81,3.86,4.86,4.86,0,0,1,2.47,3.92,4.21,4.21,0,0,1-1.45,4.1,5.09,5.09,0,0,1,1.89,4.27c0,4.72-4.62,5.48-7.06,5.5l-8.45,0c-.06,0-1.41,0-1.52.92a4.88,4.88,0,0,0,1.38,4.26c1.25,1.39,2.61,5.24,3,8.21s-.7,7.26-2.83,8.76l0,0a2.9,2.9,0,0,0,1.69.57,3,3,0,0,0,1.75-.59c2.13-1.5,3.26-5.86,2.83-8.76s-1.79-6.82-3-8.21A4.88,4.88,0,0,1,93,88.66c.11-.88,1.46-.91,1.52-.92l8.45,0c2.44,0,7.06-.78,7.06-5.5a5.09,5.09,0,0,0-1.89-4.27A4.21,4.21,0,0,0,109.54,73.85ZM67.88,58.22h0Zm41.66,15.63a4.86,4.86,0,0,0-2.47-3.92,4.86,4.86,0,0,0,.81-3.86,4.67,4.67,0,0,0-2.33-3.36,4.45,4.45,0,0,0,.54-3.26c-.61-3.21-3.38-3.39-4.57-3.47l-.37,0H97.75l.37,0c1.18.08,4,.27,4.57,3.47a4.45,4.45,0,0,1-.54,3.26,4.67,4.67,0,0,1,2.33,3.36,4.87,4.87,0,0,1-.81,3.86,4.86,4.86,0,0,1,2.47,3.92,4.21,4.21,0,0,1-1.45,4.1,5.09,5.09,0,0,1,1.89,4.27c0,4.72-4.62,5.48-7.06,5.5l-8.45,0c-.06,0-1.41,0-1.52.92a4.88,4.88,0,0,0,1.38,4.26c1.25,1.39,2.61,5.24,3,8.21s-.7,7.26-2.83,8.76l0,0a2.9,2.9,0,0,0,1.69.57,3,3,0,0,0,1.75-.59c2.13-1.5,3.26-5.86,2.83-8.76s-1.79-6.82-3-8.21A4.88,4.88,0,0,1,93,88.66c.11-.88,1.46-.91,1.52-.92l8.45,0c2.44,0,7.06-.78,7.06-5.5a5.09,5.09,0,0,0-1.89-4.27A4.21,4.21,0,0,0,109.54,73.85ZM67.88,58.22h0Z"/><path class="cls-5" d="M65.66,58.2h3.43V82.06H65.66Z"/><path class="cls-6" d="M66.79,57.43V81.72a2.63,2.63,0,0,1-2.63,2.63H47.84a2.63,2.63,0,0,1-2.63-2.63L49,57.43a2.63,2.63,0,0,1,2.63-2.63H64.17A2.63,2.63,0,0,1,66.79,57.43Z"/><path class="cls-7" d="M57.7,62.75A2.27,2.27,0,1,1,60,65,2.27,2.27,0,0,1,57.7,62.75Z"/><path class="cls-8" d="M66.76,57.11a2.62,2.62,0,0,0-2.59-2.3H51.59A2.63,2.63,0,0,0,49,57.43L45.21,81.72a2.62,2.62,0,0,0,2.31,2.6l0-.33,3.75-24.29a2.63,2.63,0,0,1,2.63-2.63H66.44Z"/><path class="cls-8" d="M60.91,60.69a2.27,2.27,0,1,0-3,3,2.25,2.25,0,0,1-.2-.93,2.27,2.27,0,0,1,3.21-2.06Z"/></g></g></svg>