<svg xmlns="http://www.w3.org/2000/svg" viewBox="0 0 153.28 153.28"><defs><style>.cls-1{fill:#1abc9c;}.cls-2{fill:#171c1f;}.cls-3{opacity:0.1;}.cls-4{fill:#e67e22;}</style></defs><title>pergunta</title><g id="Camada_2" data-name="Camada 2"><g id="Camada_1-2" data-name="Camada 1"><g id="Yellow"><circle class="cls-1" cx="76.64" cy="77.63" r="61.72"/></g><g id="Outline"><path class="cls-2" d="M76.64,0a76.64,76.64,0,1,0,76.64,76.64A76.64,76.64,0,0,0,76.64,0Zm0,147.49a70.85,70.85,0,1,1,70.85-70.85A70.85,70.85,0,0,1,76.64,147.49Z"/></g><g id="Shadows" class="cls-3"><path d="M76.64,21a60.55,60.55,0,0,1,60.48,57.6c0-1,.07-2,.07-3a60.55,60.55,0,0,0-121.1,0c0,1,0,2,.07,3A60.55,60.55,0,0,1,76.64,21ZM149,74.17a72.34,72.34,0,0,1-144.66,0c0,.49,0,1,0,1.48a72.37,72.37,0,1,0,144.73,0C149,75.15,149,74.66,149,74.17Z"/></g><path class="cls-2" d="M76.64,142a64,64,0,1,1,64-64A64,64,0,0,1,76.64,142Zm0-124.89A60.92,60.92,0,1,0,137.56,78,61,61,0,0,0,76.64,17.1Z"/><path class="cls-2" d="M76.64,142a64,64,0,1,1,64-64A64,64,0,0,1,76.64,142Zm0-124.89A60.92,60.92,0,1,0,137.56,78,61,61,0,0,0,76.64,17.1Z"/><path class="cls-4" d="M67.49,110.05V96.25h15.7v13.8Zm0-17.89V90.65c0-4.44.67-7.6,2-9.66s3.65-4.33,7.4-7.2a22.58,22.58,0,0,0,4.58-5A10.15,10.15,0,0,0,83,63.09a7.48,7.48,0,0,0-1.66-5.23,6.33,6.33,0,0,0-4.93-1.74A6.63,6.63,0,0,0,72,57.62a5.63,5.63,0,0,0-1.7,4.49l0,1.48H54.6l0-1.52c.06-6.21,2.15-11,6.21-14.17S70,43.23,76.47,43.23c6.95,0,12.43,1.75,16.3,5.2s5.9,8.39,5.9,14.54a19.06,19.06,0,0,1-3.42,11,30.46,30.46,0,0,1-8.49,8.2,8.77,8.77,0,0,0-3,3.38,14.86,14.86,0,0,0-.67,5.11v1.5Z"/><path class="cls-2" d="M76.47,44.73q9.9,0,15.3,4.82T97.16,63A17.51,17.51,0,0,1,94,73.12a28.86,28.86,0,0,1-8.12,7.82A10.17,10.17,0,0,0,82.39,85a16.15,16.15,0,0,0-.78,5.66H69q0-6.18,1.73-8.88t7-6.81a24.06,24.06,0,0,0,4.93-5.42,11.71,11.71,0,0,0,1.82-6.46,8.87,8.87,0,0,0-2.05-6.24,7.8,7.8,0,0,0-6-2.23A8.14,8.14,0,0,0,71,56.48a7.08,7.08,0,0,0-2.23,5.62H56.11q.09-8.64,5.64-13t14.71-4.36m5.23,53v10.8H69V97.75h12.7m-5.23-56c-6.77,0-12.34,1.68-16.57,5-4.44,3.49-6.72,8.65-6.79,15.34l0,3H71.74l0-3c0-2.39.89-3.13,1.17-3.37a5.2,5.2,0,0,1,3.52-1.14,5,5,0,0,1,3.82,1.26,6.08,6.08,0,0,1,1.26,4.21,8.69,8.69,0,0,1-1.34,4.84,21.14,21.14,0,0,1-4.28,4.7c-3.87,3-6.39,5.44-7.71,7.56-1.44,2.3-2.15,5.72-2.18,10.45l0,3h18.6v-3a13.08,13.08,0,0,1,.57-4.57,7.13,7.13,0,0,1,2.44-2.71,32,32,0,0,0,8.86-8.57A20.53,20.53,0,0,0,100.16,63c0-6.6-2.15-11.86-6.4-15.66s-10-5.58-17.29-5.58Zm8.23,53H66v16.8h18.7V94.75Z"/></g></g></svg>