<svg xmlns="http://www.w3.org/2000/svg" viewBox="0 0 153.28 153.28"><defs><style>.cls-1{fill:#1abc9c;}.cls-2{fill:#171c1f;}.cls-3{opacity:0.1;}.cls-4{fill:#fff;}.cls-5{fill:#eee;}.cls-6{fill:#e67e22;}.cls-7{fill:#ffc868;}.cls-8{opacity:0.15;}</style></defs><title>pesquisa</title><g id="Camada_2" data-name="Camada 2"><g id="Camada_1-2" data-name="Camada 1"><g id="Yellow"><circle class="cls-1" cx="76.64" cy="77.63" r="61.72"/></g><g id="Outline"><path class="cls-2" d="M76.64,0a76.64,76.64,0,1,0,76.64,76.64A76.64,76.64,0,0,0,76.64,0Zm0,147.49a70.85,70.85,0,1,1,70.85-70.85A70.85,70.85,0,0,1,76.64,147.49Z"/></g><g id="Shadows" class="cls-3"><path d="M149,74.17a72.34,72.34,0,0,1-144.66,0c0,.49,0,1,0,1.48a72.37,72.37,0,1,0,144.73,0C149,75.15,149,74.66,149,74.17ZM76.64,21a60.55,60.55,0,0,1,60.48,57.6c0-1,.07-2,.07-3a60.55,60.55,0,0,0-121.1,0c0,1,0,2,.07,3A60.55,60.55,0,0,1,76.64,21Z"/></g><path class="cls-2" d="M76.64,142a64,64,0,1,1,64-64A64,64,0,0,1,76.64,142Zm0-124.89A60.92,60.92,0,1,0,137.56,78,61,61,0,0,0,76.64,17.1Z"/><path class="cls-2" d="M76.64,142a64,64,0,1,1,64-64A64,64,0,0,1,76.64,142Zm0-124.89A60.92,60.92,0,1,0,137.56,78,61,61,0,0,0,76.64,17.1Z"/><g id="Fill"><path class="cls-4" d="M115,53.77a5.24,5.24,0,0,0-5.24-5.24H45.24A5.24,5.24,0,0,0,40,53.77V95.66h75ZM33,97.41s1.75,7,7,7h75c5.24,0,7-7,7-7Z"/></g><g id="Gray"><path class="cls-5" d="M33,97.41s1.75,7,7,7h75c5.24,0,7-7,7-7Z"/></g><g id="Green"><rect class="cls-6" x="50.47" y="59.01" width="34.91" height="31.42"/></g><g id="Dark_Blue" data-name="Dark Blue"><rect class="cls-7" x="88.87" y="59.01" width="15.71" height="31.42"/></g><g id="Inner_Lines_1" data-name="Inner Lines 1" class="cls-8"><path class="cls-2" d="M78.4,66H55.71v1.75H78.4Zm17.45,5.24H92.36V73h3.49ZM55.71,83.44H75.78V81.7H55.71Zm17.45-7H55.71v1.75H73.16ZM92.36,66v1.75h8.73V66ZM55.71,73H81V71.23H55.71Zm36.65,5.24h7V76.46h-7Zm0,5.24H97.6V81.7H92.36Z"/></g><g id="Inner_Lines_2" data-name="Inner Lines 2"><path class="cls-2" d="M109.81,52H45.24a1.75,1.75,0,0,0-1.75,1.75V95.66h1.75V53.77h64.58V95.66h1.75V53.77A1.75,1.75,0,0,0,109.81,52Z"/></g><g id="Shadows-2" data-name="Shadows" class="cls-3"><path d="M113.3,93.92H41.75v1.75H113.3Zm-78.54,7v1.75h85.52V100.9Z"/></g><g id="Outline-2" data-name="Outline"><path class="cls-2" d="M123.78,97.41A1.75,1.75,0,0,0,122,95.66h-5.24V53.77a7,7,0,0,0-7-7H45.24a7,7,0,0,0-7,7V95.66H33a1.75,1.75,0,0,0-1.75,1.75h0c0,3.62,2.19,8.72,10.47,8.72H113.3c8.28,0,10.47-5.1,10.47-8.72h0Zm-82-43.63a3.49,3.49,0,0,1,3.49-3.49h64.58a3.49,3.49,0,0,1,3.49,3.49V95.66H41.75Zm71.58,48.87H41.73c-4.4,0-6-2-6.61-3.49H64a3.14,3.14,0,0,0,3.05,1.75H88a3.14,3.14,0,0,0,3.05-1.75h28.88C119.34,100.69,117.73,102.64,113.32,102.64Z"/></g></g></g></svg>