<svg xmlns="http://www.w3.org/2000/svg" viewBox="0 0 124.69 124.69"><defs><style>.cls-1{fill:#1abc9c;}.cls-2{fill:#171c1f;}.cls-3{opacity:0.1;}.cls-4{fill:#e67e22;}.cls-5{opacity:0.25;}.cls-6{fill:#fff;}</style></defs><title>play</title><g id="Camada_2" data-name="Camada 2"><g id="Camada_1-2" data-name="Camada 1"><g id="Yellow"><circle class="cls-1" cx="62.34" cy="63.15" r="50.21"/></g><g id="Outline"><path class="cls-2" d="M62.34,0a62.34,62.34,0,1,0,62.34,62.34A62.34,62.34,0,0,0,62.34,0Zm0,120A57.64,57.64,0,1,1,120,62.34,57.64,57.64,0,0,1,62.34,120Z"/></g><g id="Shadows" class="cls-3"><path d="M62.34,17.09a49.26,49.26,0,0,1,49.2,46.86c0-.8.06-1.6.06-2.4a49.26,49.26,0,0,0-98.52,0c0,.81,0,1.61.06,2.4A49.26,49.26,0,0,1,62.34,17.09Zm58.84,43.25a58.85,58.85,0,0,1-117.68,0c0,.4,0,.8,0,1.2a58.87,58.87,0,1,0,117.74,0C121.21,61.13,121.19,60.74,121.18,60.34Z"/></g><path class="cls-2" d="M62.34,115.5a52,52,0,1,1,52-52A52.1,52.1,0,0,1,62.34,115.5Zm0-101.59A49.56,49.56,0,1,0,111.9,63.47,49.61,49.61,0,0,0,62.34,13.91Z"/><path class="cls-2" d="M62.34,115.5a52,52,0,1,1,52-52A52.1,52.1,0,0,1,62.34,115.5Zm0-101.59A49.56,49.56,0,1,0,111.9,63.47,49.61,49.61,0,0,0,62.34,13.91Z"/><g id="Black"><path class="cls-2" d="M88.07,62.6a4.14,4.14,0,0,0-2-3.55h0L54.88,40.33h0a4.13,4.13,0,0,0-6.29,3.55V81.31a4.13,4.13,0,0,0,6.29,3.55h0L86.05,66.17h0A4.14,4.14,0,0,0,88.07,62.6ZM56.89,74V51.24L75.83,62.6Z"/></g><g id="Blue"><polygon class="cls-4" points="52.74 43.9 52.74 81.31 83.91 62.6 52.74 43.9"/></g><g id="Inner_Lines" data-name="Inner Lines" class="cls-5"><path class="cls-2" d="M53.78,45.49V79.72L82,62.6Zm3.12,5.75L75.83,62.6,56.89,74Z"/></g><g id="White"><path class="cls-6" d="M86,62.6a2.07,2.07,0,0,0-1-1.78h0L53.81,42.12h0a2.07,2.07,0,0,0-3.14,1.78V81.31a2.07,2.07,0,0,0,3.14,1.78h0L85,64.39h0A2.07,2.07,0,0,0,86,62.6Zm-31.18,15V47.57l25.06,15Z"/></g></g></g></svg>