<svg xmlns="http://www.w3.org/2000/svg" xmlns:xlink="http://www.w3.org/1999/xlink" viewBox="0 0 153.28 153.28"><defs><style>.cls-1{fill:none;}.cls-2{fill:#1abc9c;}.cls-3{fill:#171c1f;}.cls-4{opacity:0.1;}.cls-5{clip-path:url(#clip-path);}.cls-6{fill:#fff;}.cls-7{opacity:0.15;}.cls-8{fill:#485761;}.cls-9{opacity:0.25;}</style><clipPath id="clip-path"><circle class="cls-1" cx="76.64" cy="77.63" r="61.72"/></clipPath></defs><title>refletir</title><g id="Camada_2" data-name="Camada 2"><g id="Camada_1-2" data-name="Camada 1"><g id="Yellow"><circle class="cls-2" cx="76.64" cy="77.63" r="61.72"/></g><g id="Outline"><path class="cls-3" d="M76.64,0a76.64,76.64,0,1,0,76.64,76.64A76.64,76.64,0,0,0,76.64,0Zm0,147.49a70.85,70.85,0,1,1,70.85-70.85A70.85,70.85,0,0,1,76.64,147.49Z"/></g><g id="Shadows" class="cls-4"><path d="M76.64,21a60.55,60.55,0,0,1,60.48,57.6c0-1,.07-2,.07-3a60.55,60.55,0,0,0-121.1,0c0,1,0,2,.07,3A60.55,60.55,0,0,1,76.64,21ZM149,74.17a72.34,72.34,0,0,1-144.66,0c0,.49,0,1,0,1.48a72.37,72.37,0,1,0,144.73,0C149,75.15,149,74.66,149,74.17Z"/></g><g class="cls-5"><g id="Fill"><path class="cls-6" d="M104.43,39.69a10.51,10.51,0,0,0-15.3-13.84A21,21,0,0,0,49.49,39.46,15.78,15.78,0,0,0,54.1,70.33H99.18a15.77,15.77,0,0,0,5.25-30.64Z"/></g><g id="Shadows-2" data-name="Shadows" class="cls-4"><path d="M113.41,53.75A14.26,14.26,0,0,1,99.18,67.32H54.1A14.26,14.26,0,0,1,39.86,53.75c0,.27,0,.53,0,.8A14.27,14.27,0,0,0,54.1,68.82H99.18a14.27,14.27,0,0,0,14.27-14.27C113.45,54.28,113.43,54,113.41,53.75Z"/></g><g id="Inner_Lines" data-name="Inner Lines" class="cls-7"><path class="cls-3" d="M92.41,46.29h-6a.75.75,0,0,0,0,1.5h6a.75.75,0,0,0,0-1.5Zm-30.8,9h-6a.75.75,0,1,0,0,1.5h6a.75.75,0,0,0,0-1.5Zm-1.5-3a.75.75,0,0,0-.75-.75h-9a.75.75,0,1,0,0,1.5h9A.75.75,0,0,0,60.11,52.3Zm12-24a.75.75,0,0,0-.75-.75H66.87a.75.75,0,1,0,0,1.5h4.51A.75.75,0,0,0,72.13,28.26ZM86.4,51.54H84.9a.75.75,0,1,0,0,1.5h1.5a.75.75,0,0,0,0-1.5Zm-12.77-21H71.38a.75.75,0,1,0,0,1.5h2.25a.75.75,0,0,0,0-1.5Z"/></g><g id="Outline-2" data-name="Outline"><path class="cls-3" d="M106.5,38.92A12,12,0,0,0,89.76,23.66a22.54,22.54,0,0,0-42,14.83A17.27,17.27,0,0,0,54.1,71.83H99.18a17.27,17.27,0,0,0,7.33-32.91Zm-7.33,29.9H54.1a14.27,14.27,0,0,1-2.71-28.28A19.51,19.51,0,1,1,88.5,28.49a9,9,0,1,1,13.36,12,14.27,14.27,0,0,1-2.68,28.29Z"/></g><circle class="cls-6" cx="57.53" cy="76.52" r="3.64"/><path class="cls-3" d="M57.53,73.88a2.64,2.64,0,1,1-2.64,2.64,2.64,2.64,0,0,1,2.64-2.64m0-2a4.64,4.64,0,1,0,4.64,4.64,4.65,4.65,0,0,0-4.64-4.64Z"/><circle class="cls-6" cx="63.12" cy="84.1" r="2.78"/><path class="cls-3" d="M63.12,82.32a1.78,1.78,0,1,1-1.78,1.78,1.78,1.78,0,0,1,1.78-1.78m0-2a3.78,3.78,0,1,0,3.78,3.78,3.79,3.79,0,0,0-3.78-3.78Z"/></g><g id="Orange"><path class="cls-8" d="M90.54,100.37a14.27,14.27,0,1,0-14.27,14.27A14.27,14.27,0,0,0,90.54,100.37ZM76.27,114.64a23.17,23.17,0,0,0-23.1,21.45c8.29,3.81,14.38,4.76,23.1,4.76s16.34-1.34,23.1-4.76A23.17,23.17,0,0,0,76.27,114.64Z"/></g><g id="White_2" data-name="White 2"><path class="cls-6" d="M84.35,114.22a16.05,16.05,0,1,0-16.17,0A25,25,0,0,0,51.5,134.7a37.58,37.58,0,0,0,3.39,2.66,21.38,21.38,0,0,1,42.76,0A37.58,37.58,0,0,0,101,134.7,25,25,0,0,0,84.35,114.22Zm-8.09-1.37a12.49,12.49,0,1,1,12.49-12.49,12.49,12.49,0,0,1-12.49,12.49Z"/></g><g id="Inner_Lines_2" data-name="Inner Lines 2" class="cls-9"><path d="M76.27,112.86a12.49,12.49,0,1,0-12.49-12.49A12.49,12.49,0,0,0,76.27,112.86Zm0-23.19a10.7,10.7,0,1,1-10.7,10.7A10.7,10.7,0,0,1,76.27,89.67Zm21.38,47.69a21.38,21.38,0,0,0-42.76,0c.59.41,1.18.81,1.8,1.18,0-.24,0-.47,0-.72a19.62,19.62,0,0,1,39.24,0c0,.24,0,.48,0,.72C96.46,138.17,97.06,137.77,97.65,137.36Z"/></g><path class="cls-3" d="M76.64,142a64,64,0,1,1,64-64A64,64,0,0,1,76.64,142Zm0-124.89A60.92,60.92,0,1,0,137.56,78,61,61,0,0,0,76.64,17.1Z"/><path class="cls-3" d="M76.64,142a64,64,0,1,1,64-64A64,64,0,0,1,76.64,142Zm0-124.89A60.92,60.92,0,1,0,137.56,78,61,61,0,0,0,76.64,17.1Z"/></g></g></svg>