<svg xmlns="http://www.w3.org/2000/svg" viewBox="0 0 80 61.06"><defs><style>.cls-1{fill:#1abc9c;}.cls-2{opacity:0.1;}.cls-3{opacity:0.15;}.cls-4{fill:#171c1f;}.cls-5{fill:#fff;}</style></defs><title>saiba_mais</title><g id="Camada_2" data-name="Camada 2"><g id="Camada_1-2" data-name="Camada 1"><g id="Fill"><path class="cls-1" d="M66.4,28.54A10,10,0,0,0,51.87,15.4,20,20,0,0,0,14.21,28.33a15,15,0,0,0,4.38,29.32H61.41a15,15,0,0,0,5-29.1Z"/></g><g id="Shadows" class="cls-2"><path d="M74.93,41.9A13.55,13.55,0,0,1,61.41,54.79H18.59A13.55,13.55,0,0,1,5.07,41.9c0,.25,0,.5,0,.76A13.56,13.56,0,0,0,18.59,56.22H61.41A13.56,13.56,0,0,0,75,42.66C75,42.41,74.95,42.16,74.93,41.9Z"/></g><g id="Inner_Lines" data-name="Inner Lines" class="cls-3"><path class="cls-4" d="M35.72,17.68A.71.71,0,0,0,35,17H30.72a.71.71,0,1,0,0,1.43H35A.71.71,0,0,0,35.72,17.68ZM24.3,48.87a.71.71,0,0,0-.71-.71H15a.71.71,0,0,0,0,1.43h8.56A.71.71,0,0,0,24.3,48.87Zm1.43,2.85H20a.71.71,0,0,0,0,1.43h5.71a.71.71,0,0,0,0-1.43Zm11.42-31.9H35a.71.71,0,1,0,0,1.43h2.14a.71.71,0,1,0,0-1.43ZM68.91,39.45H63.2a.71.71,0,0,0,0,1.43h5.71a.71.71,0,0,0,0-1.43Zm-5.71,5H61.77a.71.71,0,0,0,0,1.43H63.2a.71.71,0,0,0,0-1.43Z"/></g><g id="Outline"><path class="cls-5" d="M68.37,27.81a11.42,11.42,0,0,0-15.9-14.49A21.41,21.41,0,0,0,12.55,27.41a16.41,16.41,0,0,0,6,31.66H61.41a16.4,16.4,0,0,0,7-31.26Zm-7,28.41H18.59A13.56,13.56,0,0,1,16,29.35,18.53,18.53,0,1,1,51.27,17.91,8.55,8.55,0,1,1,64,29.35a13.56,13.56,0,0,1-2.55,26.87Z"/></g><g id="Outline-2" data-name="Outline"><path class="cls-5" d="M68.37,27.81a11.42,11.42,0,0,0-15.9-14.49A21.41,21.41,0,0,0,12.55,27.41a16.41,16.41,0,0,0,6,31.66H61.41a16.4,16.4,0,0,0,7-31.26Zm-7,28.41H18.59A13.56,13.56,0,0,1,16,29.35,18.53,18.53,0,1,1,51.27,17.91,8.55,8.55,0,1,1,64,29.35a13.56,13.56,0,0,1-2.55,26.87Z"/></g><g id="Outline-3" data-name="Outline"><path class="cls-4" d="M61.85,61.06H18.15A18.14,18.14,0,0,1,10.43,26.5,23.24,23.24,0,0,1,53.3,11.16,13.05,13.05,0,0,1,70.68,27.08a18.13,18.13,0,0,1-8.83,34ZM33.44,2.78a20.46,20.46,0,0,0-20.1,24.3,1.39,1.39,0,0,1-.85,1.55,15.36,15.36,0,0,0,5.65,29.64H61.85A15.35,15.35,0,0,0,68.37,29a1.39,1.39,0,0,1-.69-1.8,10.26,10.26,0,0,0-14.29-13,1.39,1.39,0,0,1-1.88-.57A20.44,20.44,0,0,0,33.44,2.78Z"/></g><path class="cls-4" d="M23.14,41.25a1.16,1.16,0,0,0-.4-.93,4.25,4.25,0,0,0-1.44-.66,8.22,8.22,0,0,1-2.72-1.22,2.32,2.32,0,0,1-.9-1.95,2.4,2.4,0,0,1,1-2,4.39,4.39,0,0,1,2.69-.77,4.07,4.07,0,0,1,2.71.87,2.77,2.77,0,0,1,1,2.21h-2a1.47,1.47,0,0,0-.45-1.13,1.85,1.85,0,0,0-1.31-.42,2,2,0,0,0-1.26.35,1.13,1.13,0,0,0-.43.92,1,1,0,0,0,.46.84,6.74,6.74,0,0,0,1.64.69,6.5,6.5,0,0,1,2.52,1.21,2.52,2.52,0,0,1,.84,2,2.39,2.39,0,0,1-1,2,4.48,4.48,0,0,1-2.7.73,4.93,4.93,0,0,1-2.88-.83,2.75,2.75,0,0,1-1.2-2.41h2a1.55,1.55,0,0,0,.54,1.32,2.51,2.51,0,0,0,1.53.41,2,2,0,0,0,1.26-.33A1.09,1.09,0,0,0,23.14,41.25Z"/><path class="cls-4" d="M30.8,43.87a4,4,0,0,1-.16-.43,3.9,3.9,0,0,1-.11-.47,2.71,2.71,0,0,1-.85.76,2.33,2.33,0,0,1-1.17.28,2.45,2.45,0,0,1-1.75-.6,2.14,2.14,0,0,1-.63-1.64A2,2,0,0,1,27,40.06a4.25,4.25,0,0,1,2.48-.59h1v-.59a1.16,1.16,0,0,0-.28-.84,1.12,1.12,0,0,0-.84-.29,1.15,1.15,0,0,0-.77.23.82.82,0,0,0-.27.66h-2A2.05,2.05,0,0,1,27.17,37a3.64,3.64,0,0,1,2.31-.68,3.37,3.37,0,0,1,2.18.66,2.35,2.35,0,0,1,.82,1.94V42a5.74,5.74,0,0,0,.08,1,5.14,5.14,0,0,0,.25.91Zm-1.74-1.34a1.76,1.76,0,0,0,.83-.19,1.54,1.54,0,0,0,.57-.5V40.6h-1a1.35,1.35,0,0,0-1,.31,1,1,0,0,0-.32.78.78.78,0,0,0,.24.6A1,1,0,0,0,29.06,42.52Z"/><path class="cls-4" d="M36.11,34.64h-2V33.13h2Zm0,9.22h-2V36.42h2Z"/><path class="cls-4" d="M44.48,40.35A4.38,4.38,0,0,1,43.75,43a2.53,2.53,0,0,1-2.16,1,2.29,2.29,0,0,1-1.14-.26,2.31,2.31,0,0,1-.81-.79l-.14.91H37.77V33.13h2v4h0a2.06,2.06,0,0,1,1.79-.9,2.47,2.47,0,0,1,2.17,1.05,5,5,0,0,1,.73,2.87Zm-2-.14a3.93,3.93,0,0,0-.31-1.73,1.12,1.12,0,0,0-1.1-.63,1.5,1.5,0,0,0-.79.19,1.39,1.39,0,0,0-.51.56v3.14a1.3,1.3,0,0,0,.51.53,1.65,1.65,0,0,0,.8.18,1.15,1.15,0,0,0,1.09-.54,3.24,3.24,0,0,0,.3-1.56Z"/><path class="cls-4" d="M50.08,43.87a4,4,0,0,1-.16-.43,3.9,3.9,0,0,1-.11-.47,2.71,2.71,0,0,1-.85.76A2.33,2.33,0,0,1,47.8,44a2.45,2.45,0,0,1-1.75-.6,2.14,2.14,0,0,1-.63-1.64,2,2,0,0,1,.83-1.71,4.25,4.25,0,0,1,2.48-.59h1v-.59a1.16,1.16,0,0,0-.28-.84,1.12,1.12,0,0,0-.84-.29,1.15,1.15,0,0,0-.77.23.82.82,0,0,0-.27.66h-2A2.05,2.05,0,0,1,46.45,37a3.64,3.64,0,0,1,2.31-.68,3.37,3.37,0,0,1,2.18.66,2.35,2.35,0,0,1,.82,1.94V42a5.74,5.74,0,0,0,.08,1,5.14,5.14,0,0,0,.25.91Zm-1.74-1.34a1.76,1.76,0,0,0,.83-.19,1.54,1.54,0,0,0,.57-.5V40.6h-1a1.35,1.35,0,0,0-1,.31,1,1,0,0,0-.32.78.78.78,0,0,0,.24.6A1,1,0,0,0,48.34,42.52Z"/><path class="cls-4" d="M56.87,31.47H60.5V34H56.87v4.17H54.09V34H50.44V31.47h3.65v-4h2.78Z"/></g></g></svg>