<svg xmlns="http://www.w3.org/2000/svg" viewBox="0 0 15.37 13.31"><defs><style>.cls-1{fill:#ffc868;}.cls-2{fill:#171c1f;}</style></defs><title>seta</title><g id="Camada_2" data-name="Camada 2"><g id="Camada_1-2" data-name="Camada 1"><path class="cls-1" d="M6.56,12.81a.5.5,0,0,1-.35-.15L.65,7.11A.5.5,0,0,1,.5,6.76v-.2A.5.5,0,0,1,.65,6.2L6.2.65a.5.5,0,0,1,.71,0L8.7,2.44a.5.5,0,0,1,0,.71L7,4.89h7.41a.5.5,0,0,1,.5.5V7.92a.5.5,0,0,1-.5.5H7L8.7,10.17a.5.5,0,0,1,0,.71L6.91,12.67A.5.5,0,0,1,6.56,12.81Z"/><path class="cls-2" d="M6.56,1,8.35,2.79l-2.6,2.6h8.62V7.92H5.75l2.6,2.6L6.56,12.31,1,6.76v-.2L6.56,1m0-1a1,1,0,0,0-.71.29L.29,5.85A1,1,0,0,0,0,6.56v.2a1,1,0,0,0,.29.71L5.85,13a1,1,0,0,0,1.41,0l1.79-1.79a1,1,0,0,0,0-1.41l-.89-.89h6.21a1,1,0,0,0,1-1V5.39a1,1,0,0,0-1-1H8.17l.89-.89a1,1,0,0,0,0-1.41L7.26.29A1,1,0,0,0,6.56,0Z"/></g></g></svg>