<svg xmlns="http://www.w3.org/2000/svg" viewBox="0 0 153.28 153.28"><defs><style>.cls-1{fill:#1abc9c;}.cls-2{fill:#fdfdfd;}.cls-3{fill:#fafdfd;}.cls-4{opacity:0.1;}.cls-5{fill:#171c1f;}</style></defs><title>tanamidia</title><g id="Camada_2" data-name="Camada 2"><g id="Camada_1-2" data-name="Camada 1"><g id="Yellow"><circle class="cls-1" cx="76.64" cy="77.63" r="61.72"/></g><path class="cls-1" d="M137.65,77.49A61.34,61.34,0,1,1,74,16.19,61.36,61.36,0,0,1,137.65,77.49ZM48.41,66.06A18.58,18.58,0,1,0,29.79,47.58,18.61,18.61,0,0,0,48.41,66.06Zm86.34,7.83a17.43,17.43,0,0,0-34.86-.19,17.43,17.43,0,1,0,34.86.19ZM93.33,23.22A13.65,13.65,0,1,0,107,36.87,13.56,13.56,0,0,0,93.33,23.22Zm-22,80.7A13.7,13.7,0,1,0,84.91,90.18,13.67,13.67,0,0,0,71.32,103.93ZM52,89.84c-4.33,0-8.66,0-13,0-1.1,0-1.52.21-1.5,1.42.07,5.05.06,10.1,0,15.16,0,1.08.31,1.39,1.39,1.39q13.07-.06,26.14,0c1.16,0,1.34-.43,1.33-1.44,0-5.05-.05-10.1,0-15.16,0-1.1-.32-1.39-1.39-1.37C60.64,89.87,56.31,89.84,52,89.84ZM37,76.62a8.9,8.9,0,0,0-8.84-9A9,9,0,1,0,28,85.51,8.82,8.82,0,0,0,37,76.62Zm17.73,54.61a8.33,8.33,0,0,0,8.24-8.3,8.29,8.29,0,1,0-8.24,8.3ZM83.18,53.56a9.18,9.18,0,0,0-9.29,9.29,9.35,9.35,0,0,0,9.39,9.26,9.22,9.22,0,0,0,9.16-9.29A9.06,9.06,0,0,0,83.18,53.56ZM46.49,76.49c.09.66.12,1.33.27,2,1,4.29,4.73,7.23,9.58,7.58,5.85.43,11-4.13,11-9.66-.05-4.68-3.66-8.47-8.89-9.32C52.37,66.07,46.57,70.68,46.49,76.49Zm34.34-.19c-1.75,0-3.5,0-5.25,0-1.2,0-2,.54-2,1.81,0,2,0,3.91,0,5.87,0,.73.37,1.46,1.07,1.52,1.48.14,1.46,1.05,1.4,2.13,0,.43-.21,1,.34,1.24s.89-.22,1.15-.58c1.75-2.38,4.14-3,6.92-2.58a9.61,9.61,0,0,0,1.39,0,1.94,1.94,0,0,0,2.12-2.12c0-1.75.05-3.5,0-5.25a1.9,1.9,0,0,0-2.16-2.06C84.13,76.32,82.48,76.3,80.83,76.3ZM52,111.51c4.84,0,9.68,0,14.52,0,1.14,0,1.39-.39,1.35-1.42s0-1.65-1.34-1.64q-14.6.07-29.2,0c-1.4,0-1.26.71-1.3,1.63s.11,1.47,1.3,1.45C42.2,111.47,47.09,111.51,52,111.51ZM113.8,44.66c.78.94.43,1.82.65,2.6.15.55.14,1.21,1,1s2.21.64,2.6-.84a18.77,18.77,0,0,1,1.3-3.12A4.69,4.69,0,0,0,118,38.4a5,5,0,0,0-5.64-.1,4.73,4.73,0,0,0-1.53,5.93,15.42,15.42,0,0,1,1.4,3.41c.15.81.77.69,1.33.68.71,0,.65-.51.6-1C114,46.52,113.92,45.72,113.8,44.66ZM32.53,95.8a11.5,11.5,0,0,1-1.26.89A1.41,1.41,0,0,1,29,95.37c.07-1.6-.32-2.94-1.89-3.49s-2.64.25-3.73,1.43c-.84.9-1.87,1.37-.47,2.58.2.17.08.69.15,1a4.65,4.65,0,0,0,5.36,3.75A4.89,4.89,0,0,0,32.53,95.8Zm56.89,28.51c.43,1.76.75,3.11,1.09,4.45.13.52,0,1.22.84,1.27s.81-.67,1-1.17c.52-1.73,1-3.46,1.46-5.2.1-.39.7-1-.14-1.25s-.77.47-.92,1a18.73,18.73,0,0,1-1.37,4.31c-.34-1.42-.54-2.53-.89-3.58-.2-.61.1-1.67-.92-1.7s-.85,1.11-1.09,1.75c-.45,1.18-.49,2.5-1.19,3.79-.38-1.62-.73-3.07-1.06-4.52-.13-.57-.21-1.25-1-1s-.2.82-.12,1.17c.42,1.86.94,3.69,1.41,5.54.12.46.14.93.8.92s.7-.46.82-.92C88.47,127.64,88.9,126.17,89.42,124.31Zm-21.56,3.56c-.43-1.8-.78-3.24-1.1-4.69-.11-.5-.28-.93-.9-.77s-.31.65-.22,1c.46,1.85.91,3.7,1.41,5.54.12.45.1,1.08.85,1.09s.74-.61.88-1.07c.39-1.3.73-2.61,1.09-3.92a18.17,18.17,0,0,1,1.41,4.1c.1.4.09.84.66.88s.79-.32.93-.81c.51-1.89,1.06-3.76,1.57-5.65.1-.37.61-.92-.11-1.14s-.79.42-.92.92c-.4,1.48-.81,3-1.31,4.82-.43-1.81-.76-3.21-1.1-4.61-.12-.48-.06-1.09-.77-1.17s-.82.63-1,1.13A21.62,21.62,0,0,1,67.86,127.87Zm9.79.42-1.23-5.18c-.12-.51-.38-.88-1-.69s-.23.59-.15.89q.72,2.92,1.47,5.83c.11.44.15.94.83.9s.68-.5.82-.95a27.85,27.85,0,0,1,1.4-4.46c.42,1.71.77,3.13,1.11,4.56.1.41.2.81.74.84s.71-.23.84-.7c.56-2,1.16-4.05,1.72-6.08.09-.32.27-.75-.3-.85s-.67.19-.77.58c-.24.89-.42,1.81-.71,2.68-.21.63-.08,1.43-.8,1.95-.36-1.48-.71-2.88-1-4.27-.11-.46-.16-.93-.79-1s-.7.46-.82.91C78.57,124.87,78.14,126.45,77.65,128.29Zm-7-85c0,1.1,2.25,5.22,2.67,5,1.33-.69,1.78-2.15,2.5-3.37a3.39,3.39,0,0,0,.29-.71,2.58,2.58,0,0,0-.88-2.91,2.62,2.62,0,0,0-3-.36A2.59,2.59,0,0,0,70.66,43.3Zm1.82-11.5c.31-.26.59-.47.84-.72,1.17-1.16,2.31-2.34,3.5-3.48.6-.57.91-1,.14-1.72s-1.2-.36-1.73.21S74,27.24,73.5,27.85,72.3,29,71.57,28c-.32-.44-.7-.39-1,0s-1.08.68-.72,1.19A11.31,11.31,0,0,0,72.48,31.8Zm35.35,88.86c0-.64-.53-.78-.94-1a6.71,6.71,0,0,0-8.67,3.19c-.25.54-.53,1.12.16,1.47s1-.3,1.23-.79a5.18,5.18,0,0,1,2.64-2.48,5.24,5.24,0,0,1,4.2.11C107.14,121.47,107.65,121.46,107.83,120.66ZM102.9,55.33c-.35-.32.41-1.53-.61-1.15a2.44,2.44,0,0,1-1.82-.08,3.75,3.75,0,0,0-4.72,2.81c-.07.37-.33.87.28,1,.43.1,1,.18,1-.54a1,1,0,0,1,.08-.3,2.42,2.42,0,0,1,2.33-1.69c1.45-.06.46.76.48,1.22,0,.07.13.17.22.2a4.14,4.14,0,0,0,2.28,0C103.2,56.66,102.73,55.89,102.9,55.33Zm-5.24,3.24c-1.65,0-2.36,1-1.77,2.43.11.27.35.51.56.31.7-.65,1.33-.13,2,0a3.7,3.7,0,0,0,4.48-2.57c.13-.43.59-1-.2-1.29s-.95.16-1.13.85A2.28,2.28,0,0,1,99.17,60c-.26,0-.95-.07-.69-.5C99.49,57.84,97.82,58.91,97.66,58.57Zm17.54-9.91a11.43,11.43,0,0,1-1.39,0c-1.12-.14-1.6.38-1.19,1.38a2.7,2.7,0,0,0,5.05-.06c.43-1,0-1.42-1.09-1.31C116.13,48.7,115.66,48.67,115.2,48.67Zm-10.53,73c-2.2,0-3.84,1.14-4.22,2.63-.12.46-.19.94.34,1.21a.74.74,0,0,0,1.05-.36c.82-1.81,2.09-2.27,3.88-1.45a.72.72,0,0,0,1-.47c.22-.48-.08-.78-.44-1A3.25,3.25,0,0,0,104.67,121.66Zm-.51,2.86c-.76.09-1.25.5-1.23,1.29a1.15,1.15,0,0,0,1.32,1.19,1.07,1.07,0,0,0,1.15-1.17A1.22,1.22,0,0,0,104.16,124.52Z"/><path class="cls-2" d="M48.41,66.06a18.58,18.58,0,0,1-.14-37.16,18.58,18.58,0,1,1,.14,37.16ZM36.89,48.19l-.52.35A9.63,9.63,0,0,0,38.65,55,10.26,10.26,0,0,0,50,59a9.8,9.8,0,0,0,7.76-8.91,5.9,5.9,0,0,1,2-3.83c.87-.81.64-1.33-.36-1.84s-2.1-.65-2.69-1.88a6.68,6.68,0,0,0-6.89-3.42,6.2,6.2,0,0,0-5.08,4.79A8.69,8.69,0,0,0,44.42,47c.14,1.49-.12,2.8-1.55,3.58a4.58,4.58,0,0,1-4.64-.73A13.77,13.77,0,0,1,36.89,48.19Z"/><path class="cls-3" d="M134.75,73.89a17.43,17.43,0,1,1-17.46-17.48A17.46,17.46,0,0,1,134.75,73.89Zm-10.41.37c0-3.35,0-6.69,0-10,0-1.7-.52-2.23-2.19-2.23q-4.71,0-9.42,0c-1.61,0-2.16.53-2.17,2.1,0,6.8,0,13.59,0,20.39,0,1.43.62,2.06,2.05,2,3.19,0,6.38,0,9.58,0,1.78,0,2.16-.4,2.17-2.21C124.35,81,124.34,77.61,124.34,74.26Z"/><path class="cls-3" d="M93.33,23.22a13.65,13.65,0,1,1-13.7,13.6A13.54,13.54,0,0,1,93.33,23.22Zm8,18.47c.1-1.61.1-1.6,1.39-2.63.33-.27.22-.66.22-1,0-2.42,0-4.84,0-7.26,0-.92-.34-1.12-1.18-1.11q-5.95,0-11.89,0c-.88,0-1.31.18-1.29,1.18q.09,3.55,0,7.1c0,1,.38,1.22,1.28,1.2,1.65-.05,3.31.1,4.94,0,2.54-.22,4.8,0,6.24,2.48C101,41.64,101.1,41.64,101.28,41.69Zm-15.92,3.2a4.7,4.7,0,0,0,.78-.74c.89-1.47,2.21-1.76,3.82-1.66,2.05.12,4.12,0,6.17.05,1.17.05,1.46-.33,1.48-1.47s-.48-1.45-1.54-1.39c-1.54.08-3.09,0-4.63,0-3.37,0-3.37,0-3.37-3.35s0-3.36-3.41-3.17c-.74,0-1,.27-1,1,0,2.47,0,4.94,0,7.41,0,.3-.05.83.21.82C85.82,42.33,85,43.83,85.36,44.89Z"/><path class="cls-3" d="M71.32,103.93A13.7,13.7,0,1,1,85.13,117.6,13.7,13.7,0,0,1,71.32,103.93Zm4.61,0A9,9,0,0,0,85,113.05a9.14,9.14,0,1,0-9.09-9.14Z"/><path class="cls-3" d="M52,89.84c4.33,0,8.66,0,13,0,1.07,0,1.4.28,1.39,1.37-.06,5.05,0,10.1,0,15.16,0,1-.17,1.45-1.33,1.44q-13.07-.07-26.14,0c-1.08,0-1.4-.31-1.39-1.39.05-5.05.06-10.11,0-15.16,0-1.21.4-1.44,1.5-1.42C43.32,89.87,47.65,89.84,52,89.84ZM51.83,105c3.3,0,6.6,0,9.89,0,1,0,1.31-.31,1.29-1.31-.05-3.4,0-6.8,0-10.2,0-.83-.19-1.19-1.11-1.19q-10,0-19.94,0c-1,0-1.25.32-1.23,1.25,0,3.35.06,6.7,0,10,0,1.07.28,1.42,1.38,1.4C45.34,105,48.59,105,51.83,105Z"/><path class="cls-3" d="M37,76.62a8.82,8.82,0,0,1-9,8.88,9,9,0,1,1,9-8.88Zm-13-.4,0,0A4.08,4.08,0,0,1,28,72.59a4.23,4.23,0,0,1,4.23,3.79c-1.53-.57-2,.1-1.81,1.53a21.13,21.13,0,0,1,0,2.63c0,.9.52,1,1.22.91,2.43-.48,3.19-2.16,1.92-4.3A3.55,3.55,0,0,1,33.26,76a5.06,5.06,0,0,0-4.87-4.17A5,5,0,0,0,23,75.64a7.81,7.81,0,0,1-.42,1.47c-1.17,2.25-.66,3.57,1.69,4.27.85.25,1.42.1,1.37-1a15.67,15.67,0,0,1,0-2.63C25.78,76.43,25.2,76,24,76.23Z"/><path class="cls-3" d="M54.69,131.23a8.27,8.27,0,1,1,8.24-8.3A8.36,8.36,0,0,1,54.69,131.23Zm3.54-8.36a4.13,4.13,0,0,0-2.72-4.38c-.81-.23-1.3-.14-1.25.88s-.05,2.17,0,3.25c.1,1.41.07,2.55-1.9,2.19a1.37,1.37,0,0,0-1.47.92,1,1,0,0,0,.21,1.15,2.57,2.57,0,0,0,2.59.55,1.63,1.63,0,0,0,1.3-1.82c0-1.39,0-2.78,0-4.17,0-.94.44-1,1.18-.67A7.38,7.38,0,0,1,58.23,122.88Z"/><path class="cls-3" d="M83.18,53.56a9.06,9.06,0,0,1,9.26,9.26,9.22,9.22,0,0,1-9.16,9.29,9.35,9.35,0,0,1-9.39-9.26A9.18,9.18,0,0,1,83.18,53.56Zm-.68,14.39c1.5,0,3,0,4.49,0,.76,0,1.12-.19,1.11-1,0-2.06,0-4.13,0-6.19,0-.87-1.86-2.24-2.7-2.1-.34.06-.64.13-.64.51,0,.86-.62.65-1.09.66-1.75,0-3.51,0-5.26,0-.89,0-1.32.16-1.27,1.18.08,1.91.08,3.82,0,5.72,0,1.08.42,1.3,1.37,1.26C79.81,67.9,81.15,67.94,82.49,67.94Z"/><path class="cls-3" d="M46.49,76.49c.07-5.81,5.87-10.42,11.92-9.43,5.23.86,8.84,4.64,8.89,9.32.06,5.53-5.11,10.09-11,9.66-4.85-.35-8.58-3.3-9.58-7.58C46.62,77.82,46.58,77.15,46.49,76.49ZM57,70.56a6.7,6.7,0,0,0-4.55,1.5,7,7,0,0,0-2.41,7.06c.79,2.46,2.74,3.42,5.17,3.71a12.58,12.58,0,0,0,6-.94c.81-.31,1.27-.65.59-1.5-.48-.6-.3-1,.27-1.5A4.23,4.23,0,0,0,63.37,75C63,72.27,60.6,70.57,57,70.56Z"/><path class="cls-3" d="M80.83,76.3c1.65,0,3.3,0,4.94,0a1.9,1.9,0,0,1,2.16,2.06c.06,1.75.05,3.5,0,5.25a1.94,1.94,0,0,1-2.12,2.12,9.61,9.61,0,0,1-1.39,0c-2.78-.39-5.17.2-6.92,2.58-.26.35-.62.8-1.15.58S76,88.07,76,87.64c.05-1.07.08-2-1.4-2.13-.7-.07-1.06-.79-1.07-1.52,0-2,0-3.92,0-5.87,0-1.27.84-1.8,2-1.81C77.33,76.3,79.08,76.3,80.83,76.3Zm-4.53,4.51v.39h8.85v-.39Zm0-1.69v.34h7v-.34Zm0,3.53a5.71,5.71,0,0,0,3.61.08A5.7,5.7,0,0,0,76.34,82.66Z"/><path class="cls-3" d="M52,111.51c-4.89,0-9.79,0-14.68,0-1.19,0-1.34-.47-1.3-1.45s-.09-1.63,1.3-1.63q14.6.09,29.2,0c1.35,0,1.3.69,1.34,1.64s-.21,1.44-1.35,1.42C61.67,111.47,56.83,111.51,52,111.51ZM64,110a3.07,3.07,0,0,0,2.52-.06A2.78,2.78,0,0,0,64,110Z"/><path class="cls-3" d="M113.8,44.66c.13,1.05.23,1.86.31,2.67.05.48.1,1-.6,1-.56,0-1.17.13-1.33-.68a15.42,15.42,0,0,0-1.4-3.41,4.73,4.73,0,0,1,1.53-5.93,5,5,0,0,1,5.64.1,4.69,4.69,0,0,1,1.36,5.94,18.77,18.77,0,0,0-1.3,3.12c-.39,1.48-1.7.66-2.6.84s-.82-.49-1-1C114.23,46.49,114.58,45.6,113.8,44.66Zm1.49-.34c.15.33.49.58.43,1l.63-1-1.08-.05a10.49,10.49,0,0,1,0-2c.08-.41.38-.84-.21-1s-.75.45-.69.91c.1.81.14,1.51-1.06,1.67C114.11,43.92,114.77,43.8,115.29,44.33Z"/><path class="cls-3" d="M32.53,95.8a4.89,4.89,0,0,1-4.06,4.88,4.65,4.65,0,0,1-5.36-3.75c-.07-.35,0-.87-.15-1-1.4-1.2-.37-1.67.47-2.58,1.09-1.18,2.19-2,3.73-1.43s2,1.89,1.89,3.49a1.41,1.41,0,0,0,2.23,1.32A11.5,11.5,0,0,0,32.53,95.8Z"/><path class="cls-3" d="M89.42,124.31c-.52,1.86-.95,3.33-1.35,4.82-.12.46-.17.92-.82.92s-.69-.46-.8-.92c-.47-1.85-1-3.68-1.41-5.54-.08-.35-.6-1,.12-1.17s.88.45,1,1c.33,1.45.68,2.9,1.06,4.52.7-1.29.73-2.61,1.19-3.79.25-.64,0-1.79,1.09-1.75s.72,1.09.92,1.7c.35,1.05.55,2.15.89,3.58a18.73,18.73,0,0,0,1.37-4.31c.15-.5.23-1.15.92-1s.24.86.14,1.25c-.44,1.75-.94,3.48-1.46,5.2-.15.5-.12,1.22-1,1.17s-.71-.75-.84-1.27C90.17,127.42,89.85,126.07,89.42,124.31Z"/><path class="cls-3" d="M67.86,127.87a21.62,21.62,0,0,0,1.38-4.35c.16-.5.14-1.22,1-1.13s.66.69.77,1.17c.34,1.4.67,2.8,1.1,4.61.51-1.85.91-3.33,1.31-4.82.13-.5.19-1.15.92-.92s.21.77.11,1.14c-.5,1.89-1.05,3.76-1.57,5.65-.14.5-.33.86-.93.81s-.56-.49-.66-.88a18.17,18.17,0,0,0-1.41-4.1c-.36,1.31-.7,2.62-1.09,3.92-.14.45-.12,1.08-.88,1.07s-.73-.63-.85-1.09c-.49-1.84-1-3.69-1.41-5.54-.09-.36-.43-.83.22-1s.78.27.9.77C67.09,124.62,67.44,126.07,67.86,127.87Z"/><path class="cls-3" d="M77.65,128.29c.49-1.83.92-3.42,1.35-5,.12-.45.16-.94.82-.91s.68.5.79,1c.33,1.4.68,2.79,1,4.27.72-.52.59-1.32.8-1.95.29-.87.47-1.79.71-2.68.1-.39.33-.66.77-.58s.39.53.3.85c-.57,2-1.16,4.05-1.72,6.08-.13.46-.32.73-.84.7s-.64-.43-.74-.84c-.34-1.43-.69-2.85-1.11-4.56a27.85,27.85,0,0,0-1.4,4.46c-.14.45-.19.91-.82.95s-.71-.46-.83-.9q-.75-2.91-1.47-5.83c-.08-.31-.41-.71.15-.89s.84.18,1,.69Z"/><path class="cls-3" d="M70.66,43.3A2.59,2.59,0,0,1,72.2,41a2.62,2.62,0,0,1,3,.36,2.58,2.58,0,0,1,.88,2.91,3.39,3.39,0,0,1-.29.71c-.71,1.22-1.16,2.68-2.5,3.37C72.91,48.52,70.67,44.39,70.66,43.3Zm2.79.46a.64.64,0,0,0,.7-.65c0-.5-.25-.82-.72-.8a.73.73,0,0,0-.73.83C72.73,43.55,73,43.74,73.45,43.76Z"/><path class="cls-3" d="M72.48,31.8a11.31,11.31,0,0,1-2.64-2.61c-.37-.52.43-.82.72-1.19s.69-.46,1,0c.73,1,1.3.58,1.93-.13s1.17-1.16,1.73-1.76.94-1,1.73-.21.46,1.15-.14,1.72c-1.19,1.13-2.33,2.32-3.5,3.48C73.07,31.33,72.79,31.54,72.48,31.8Z"/><path class="cls-3" d="M107.83,120.66c-.18.8-.69.81-1.38.51a5.24,5.24,0,0,0-4.2-.11,5.18,5.18,0,0,0-2.64,2.48c-.27.49-.5,1.16-1.23.79s-.41-.93-.16-1.47a6.71,6.71,0,0,1,8.67-3.19C107.3,119.88,107.78,120,107.83,120.66Z"/><path class="cls-3" d="M102.9,55.33c-.18.56.3,1.33-.46,1.53a4.14,4.14,0,0,1-2.28,0c-.09,0-.21-.13-.22-.2,0-.46,1-1.28-.48-1.22a2.42,2.42,0,0,0-2.33,1.69,1,1,0,0,0-.08.3c0,.73-.59.64-1,.54-.61-.14-.35-.64-.28-1a3.75,3.75,0,0,1,4.72-2.81,2.44,2.44,0,0,0,1.82.08C103.32,53.8,102.55,55,102.9,55.33Z"/><path class="cls-3" d="M97.66,58.57c.16.34,1.83-.73.82,1-.25.43.44.5.69.5a2.28,2.28,0,0,0,2.44-1.72c.18-.68.43-1.07,1.13-.85s.33.86.2,1.29a3.7,3.7,0,0,1-4.48,2.57c-.67-.14-1.3-.66-2,0-.22.2-.45,0-.56-.31C95.3,59.62,96,58.56,97.66,58.57Z"/><path class="cls-3" d="M115.2,48.67c.46,0,.93,0,1.39,0,1-.1,1.52.36,1.09,1.31a2.7,2.7,0,0,1-5.05.06c-.41-1,.06-1.52,1.19-1.38A11.44,11.44,0,0,0,115.2,48.67Z"/><path class="cls-3" d="M104.67,121.66a3.25,3.25,0,0,1,1.61.54c.36.24.65.54.44,1a.72.72,0,0,1-1,.47c-1.79-.82-3.06-.36-3.88,1.45a.74.74,0,0,1-1.05.36c-.54-.27-.46-.75-.34-1.21C100.83,122.8,102.47,121.66,104.67,121.66Z"/><path class="cls-3" d="M104.16,124.52a1.22,1.22,0,0,1,1.23,1.31,1.07,1.07,0,0,1-1.15,1.17,1.15,1.15,0,0,1-1.32-1.19C102.91,125,103.41,124.62,104.16,124.52Z"/><path class="cls-1" d="M36.89,48.19a13.77,13.77,0,0,0,1.34,1.67,4.58,4.58,0,0,0,4.64.73c1.43-.78,1.69-2.09,1.55-3.58a8.69,8.69,0,0,1,.26-3.06,6.2,6.2,0,0,1,5.08-4.79,6.68,6.68,0,0,1,6.89,3.42c.58,1.22,1.72,1.39,2.69,1.88s1.24,1,.36,1.84a5.9,5.9,0,0,0-2,3.83A9.8,9.8,0,0,1,50,59a10.26,10.26,0,0,1-11.33-4,9.63,9.63,0,0,1-2.28-6.48Zm17.22-2.28a.9.9,0,0,0,1-1,.87.87,0,0,0-.9-.88.92.92,0,1,0-.07,1.85Z"/><path class="cls-1" d="M124.34,74.26c0,3.35,0,6.69,0,10,0,1.81-.39,2.2-2.17,2.21-3.19,0-6.38,0-9.58,0-1.43,0-2.05-.62-2.05-2,0-6.8,0-13.59,0-20.39,0-1.57.55-2.09,2.17-2.1q4.71,0,9.42,0c1.67,0,2.18.53,2.19,2.23C124.35,67.57,124.34,70.91,124.34,74.26ZM123,73.49c0-2.37,0-4.74,0-7.12,0-1-.2-1.35-1.26-1.33q-4.33.11-8.66,0c-1.06,0-1.27.36-1.26,1.33q.06,7.12,0,14.23c0,.89.17,1.29,1.18,1.26q4.41-.1,8.82,0c1,0,1.2-.37,1.18-1.27C123,78.24,123,75.86,123,73.49Zm-4.38,10.82a1.19,1.19,0,0,0-1.16-1.19,1.16,1.16,0,1,0-.06,2.32C118.13,85.47,118.5,85,118.64,84.31Zm-3.41-20.92v.27h4.42v-.27Z"/><path class="cls-1" d="M101.28,41.69c-.19-.05-.26-.05-.27-.08-1.44-2.45-3.7-2.7-6.24-2.48-1.63.14-3.29,0-4.94,0-.89,0-1.3-.2-1.28-1.2q.09-3.55,0-7.1c0-1,.41-1.19,1.29-1.18q5.95,0,11.89,0c.83,0,1.2.19,1.18,1.11-.05,2.42,0,4.84,0,7.26,0,.34.11.74-.22,1C101.38,40.09,101.38,40.08,101.28,41.69Zm-3.82-6.06c.52-.14,1-.39,1-1.06a1,1,0,0,0-2.06-.15C96.37,35.08,96.8,35.43,97.46,35.63Zm-3,0c.61-.13,1-.46,1-1.12a.92.92,0,0,0-.94-1,1,1,0,0,0-1.11,1C93.34,35.15,93.81,35.47,94.41,35.62ZM91.33,33.5a1,1,0,0,0-1,1.06,1,1,0,0,0,1.09,1,1,1,0,0,0,1-1Q92.42,33.61,91.33,33.5Zm9.13,2.11c.66-.07,1.11-.43,1.11-1a1,1,0,0,0-1.07-1,.9.9,0,0,0-1,.92C99.46,35.12,99.9,35.43,100.46,35.61Z"/><path class="cls-1" d="M85.36,44.89c-.36-1.06.46-2.56-1.44-2.49-.27,0-.21-.52-.21-.82,0-2.47,0-4.94,0-7.41,0-.72.22-.95,1-1,3.42-.19,3.41-.22,3.41,3.17s0,3.35,3.37,3.35c1.54,0,3.09.06,4.63,0,1.07-.05,1.57.13,1.54,1.39s-.31,1.52-1.48,1.47c-2.05-.1-4.12.06-6.17-.05-1.61-.09-2.93.2-3.82,1.66A4.7,4.7,0,0,1,85.36,44.89Z"/><path class="cls-1" d="M75.93,103.91A9,9,0,0,1,85,94.76a9.14,9.14,0,0,1,0,18.29A9,9,0,0,1,75.93,103.91Zm5.3.47c1.33.09,2.61.61,4,.31,1-.23,1.22.51.83,1.2-.68,1.19-.61,2.77-2,3.62-.57.34-.57,1.27-.38,1.87s1,.4,1.51.42a7.23,7.23,0,0,0,3.14-.7c.57-.25,1.07-.39.49-1.29a4,4,0,0,1-.2-3.16c.14-.59.46-.93.92-.42.94,1.05,1.27.19,1.63-.48.62.28.4,1.15,1.13,1.27.44-1,.71-1.83-.23-2.91-.78-.89-1.84-2.07-.9-3.6a2,2,0,0,0,0-1.21c-.05-.32-.15-.74-.69-.56-1.34.44-2.08-.19-2.44-1.42-.17-.58-.58-1-1.1-.88-1.52.22-3.1.39-4,1.9.7,0,1.41,0,2.11,0,1,0,1.18.33.87,1.23-.45,1.26-2.19,2.2-.66,4-1.37-.12-1.54-1.13-2.16-1.6a1.37,1.37,0,0,0-1.59-.15c-.2.11-.51.4-.48.52.14.52.74.46,1.11.71a2.09,2.09,0,0,1,.26.27c-.4.36-1.29.25-1.15,1.12-.51-.09-.54-.55-.68-.91-.36-1-.84-1.05-1.53-.06-.32-1.35.39-2.63-.21-3.86-2.92,3.64-1.35,9.71,2.88,11.43.31.13.85.44.91,0,.11-.78.65-1.87,0-2.36C81.06,107.48,82,105.69,81.23,104.38Z"/><path class="cls-1" d="M51.83,105c-3.25,0-6.49,0-9.74,0-1.1,0-1.4-.33-1.38-1.4.06-3.35,0-6.7,0-10,0-.93.28-1.26,1.23-1.25q10,0,19.94,0c.92,0,1.12.35,1.11,1.19,0,3.4,0,6.8,0,10.2,0,1-.27,1.33-1.29,1.31C58.43,105,55.13,105,51.83,105Z"/><path class="cls-1" d="M24,76.23c1.23-.2,1.81.21,1.65,1.56a15.67,15.67,0,0,0,0,2.63c0,1.08-.52,1.23-1.37,1-2.36-.7-2.86-2-1.69-4.27A7.81,7.81,0,0,0,23,75.64a5,5,0,0,1,5.43-3.84A5.06,5.06,0,0,1,33.26,76a3.55,3.55,0,0,0,.35,1.16c1.27,2.14.51,3.83-1.92,4.3-.7.14-1.24,0-1.22-.91a21.13,21.13,0,0,0,0-2.63c-.15-1.42.28-2.1,1.81-1.53A4.23,4.23,0,0,0,28,72.59a4.08,4.08,0,0,0-4.09,3.6c-.2,0-.22.07-.12.22Z"/><path class="cls-1" d="M58.23,122.88a7.38,7.38,0,0,0-2-2.11c-.74-.38-1.19-.27-1.18.67,0,1.39,0,2.78,0,4.17a1.63,1.63,0,0,1-1.3,1.82,2.57,2.57,0,0,1-2.59-.55,1,1,0,0,1-.21-1.15,1.37,1.37,0,0,1,1.47-.92c2,.35,2-.78,1.9-2.19-.08-1.08,0-2.17,0-3.25s.44-1.1,1.25-.88A4.13,4.13,0,0,1,58.23,122.88Z"/><path class="cls-1" d="M82.49,67.94c-1.34,0-2.68,0-4,0-.95,0-1.41-.18-1.37-1.26.08-1.91.08-3.82,0-5.72,0-1,.39-1.2,1.27-1.18,1.75.05,3.51,0,5.26,0,.47,0,1.09.2,1.09-.66,0-.38.3-.46.64-.51.85-.14,2.69,1.23,2.7,2.1,0,2.06,0,4.13,0,6.19,0,.84-.34,1.05-1.11,1C85.48,67.92,84,67.94,82.49,67.94Zm-1.36-1a3.07,3.07,0,0,0,3.18-3.06,3.25,3.25,0,0,0-3.15-3.16,3.14,3.14,0,0,0-3.08,3A3,3,0,0,0,81.13,67ZM85.8,62.2c.49,0,1.1.13,1.12-.67s-.64-.77-1.18-.75-1.08-.2-1.11.65S85.26,62.17,85.8,62.2Z"/><path class="cls-1" d="M57,70.56c3.58,0,6,1.71,6.35,4.4a4.23,4.23,0,0,1-1.27,3.93c-.57.52-.75.9-.27,1.5.68.85.22,1.19-.59,1.5a12.58,12.58,0,0,1-6,.94c-2.43-.28-4.38-1.24-5.17-3.71a7,7,0,0,1,2.41-7.06A6.7,6.7,0,0,1,57,70.56ZM60.62,80c-1.88-.22-3.25-.56-4.78-.21a2.08,2.08,0,0,1-2.71-2.27A4,4,0,0,1,56.55,74c3.45-.52,3.45-.52,2.83,2.91-.07.38-.34.87.25,1s.74-.29,1-.63a3.25,3.25,0,0,0-1.88-4.75c-2.94-1-5.71.76-6.35,4.06a3.32,3.32,0,0,0,2.69,4.28C56.9,81.39,58.59,80.86,60.62,80ZM57,75.85a2,2,0,0,0-1.32,2.23A2.23,2.23,0,0,0,57,75.85Z"/><path class="cls-1" d="M64,110a2.78,2.78,0,0,1,2.52-.06A3.07,3.07,0,0,1,64,110Z"/><path class="cls-1" d="M115.29,44.33c-.52-.53-1.17-.4-1.94-.32,1.2-.16,1.16-.87,1.06-1.67-.05-.45,0-1,.69-.91s.29.54.21,1a10.49,10.49,0,0,0,0,2Z"/><path class="cls-1" d="M115.26,44.35l1.08.05-.63,1c.06-.46-.28-.71-.43-1Z"/><path class="cls-1" d="M73.45,43.76c-.41,0-.71-.21-.75-.62a.73.73,0,0,1,.73-.83c.47,0,.74.3.72.8A.64.64,0,0,1,73.45,43.76Z"/><path class="cls-3" d="M54.11,45.91a.92.92,0,1,1,1-1A.89.89,0,0,1,54.11,45.91Z"/><path class="cls-2" d="M123,73.49c0,2.37,0,4.74,0,7.12,0,.89-.17,1.29-1.18,1.27q-4.41-.1-8.82,0c-1,0-1.19-.37-1.18-1.26q.05-7.12,0-14.23c0-1,.19-1.36,1.26-1.33q4.33.11,8.66,0c1.06,0,1.29.36,1.26,1.33C123,68.75,123,71.12,123,73.49Z"/><path class="cls-3" d="M118.64,84.31c-.14.68-.51,1.16-1.23,1.13a1.16,1.16,0,1,1,.06-2.32A1.19,1.19,0,0,1,118.64,84.31Z"/><path class="cls-3" d="M115.23,63.39h4.42v.27h-4.42Z"/><path class="cls-3" d="M97.46,35.63c-.66-.2-1.09-.55-1-1.21a1,1,0,0,1,2.06.15C98.48,35.24,98,35.49,97.46,35.63Z"/><path class="cls-3" d="M94.41,35.62c-.6-.15-1.07-.47-1-1.12a1,1,0,0,1,1.11-1,.92.92,0,0,1,.94,1C95.44,35.15,95,35.48,94.41,35.62Z"/><path class="cls-3" d="M91.33,33.5q1.09.11,1,1.11a1,1,0,0,1-1,1,1,1,0,0,1-1.09-1A1,1,0,0,1,91.33,33.5Z"/><path class="cls-3" d="M100.46,35.61c-.56-.19-1-.5-.95-1.17a.9.9,0,0,1,1-.92,1,1,0,0,1,1.07,1C101.57,35.18,101.12,35.54,100.46,35.61Z"/><path class="cls-3" d="M81.25,104.41c-.15-.87.75-.76,1.15-1.12a2.09,2.09,0,0,0-.26-.27c-.37-.25-1-.19-1.11-.71,0-.13.27-.41.48-.52a1.37,1.37,0,0,1,1.59.15c.62.47.78,1.48,2.16,1.6-1.53-1.78.22-2.71.66-4,.32-.9.14-1.25-.87-1.23-.7,0-1.41,0-2.11,0,.92-1.51,2.5-1.68,4-1.91.52-.08.93.3,1.1.88.35,1.23,1.09,1.87,2.44,1.42.54-.18.63.24.69.56a2,2,0,0,1,0,1.21c-.95,1.53.12,2.71.9,3.6.94,1.08.67,1.89.23,2.91-.73-.11-.51-1-1.13-1.27-.35.67-.68,1.54-1.63.48-.46-.51-.78-.17-.92.42a4,4,0,0,0,.2,3.16c.58.9.08,1-.49,1.29a7.23,7.23,0,0,1-3.14.7c-.54,0-1.31.22-1.51-.42s-.19-1.52.38-1.87c1.4-.85,1.34-2.43,2-3.62.39-.69.22-1.43-.83-1.2-1.38.3-2.66-.21-4-.31Z"/><path class="cls-3" d="M81.23,104.38c.76,1.31-.17,3.1,1.37,4.26.66.49.12,1.58,0,2.36-.06.43-.6.12-.91,0-4.23-1.73-5.8-7.79-2.88-11.43.6,1.23-.11,2.51.21,3.86.68-1,1.17-.89,1.53.06.14.37.17.82.68.91Z"/><path class="cls-3" d="M24,76.23l-.15.19c-.1-.15-.08-.23.12-.22Z"/><path class="cls-3" d="M81.13,67a3,3,0,0,1-3.05-3.18,3.14,3.14,0,0,1,3.08-3,3.25,3.25,0,0,1,3.15,3.16A3.07,3.07,0,0,1,81.13,67Zm2.29-3a2.23,2.23,0,0,0-2.17-2.31A2.17,2.17,0,0,0,79,64a2.21,2.21,0,0,0,2.24,2.25A2.27,2.27,0,0,0,83.43,64Z"/><path class="cls-3" d="M85.8,62.2c-.53,0-1.19.17-1.16-.77s.64-.64,1.11-.65,1.21-.16,1.18.75S86.29,62.18,85.8,62.2Z"/><path class="cls-3" d="M60.62,80c-2,.84-3.73,1.38-5.57.92a3.32,3.32,0,0,1-2.69-4.28c.65-3.3,3.41-5.07,6.35-4.06a3.25,3.25,0,0,1,1.88,4.75c-.23.35-.5.76-1,.63s-.32-.65-.25-1C60,73.52,60,73.52,56.55,74a4,4,0,0,0-3.42,3.5,2.08,2.08,0,0,0,2.71,2.27C57.38,79.45,58.74,79.79,60.62,80Z"/><path class="cls-3" d="M57,75.85a2.23,2.23,0,0,1-1.32,2.23A2,2,0,0,1,57,75.85Z"/><path class="cls-1" d="M83.43,64a2.27,2.27,0,0,1-2.23,2.27A2.21,2.21,0,0,1,79,64a2.17,2.17,0,0,1,2.29-2.32A2.23,2.23,0,0,1,83.43,64Z"/><g id="Fill_2" data-name="Fill 2"><rect class="cls-3" x="104.28" y="94.66" width="12.28" height="16.12"/></g><g id="Fill_1" data-name="Fill 1"><polygon class="cls-3" points="119.26 97.34 109.65 97.34 109.65 113.46 121.93 113.46 121.93 100.03 119.26 97.34"/></g><g id="Yellow-2" data-name="Yellow"><polygon class="cls-3" points="118.48 96.96 118.48 100.8 122.32 100.8 118.48 96.96"/></g><g id="Shadows" class="cls-4"><path class="cls-3" d="M109.39,113.69h12.28v-.38H109.39Zm6.91-16.89V96h-6.91a1.54,1.54,0,0,0-1.54,1.54v13H104V111h4.61V97.57a.77.77,0,0,1,.77-.77Zm1.92.38h-1.15v4a1,1,0,0,0,1,1h4V101Z"/></g><g id="Outline"><path class="cls-1" d="M122.59,100.52l-3.84-3.84a.38.38,0,0,0-.27-.11h-1.15V94.66a.77.77,0,0,0-.77-.77H104.28a.77.77,0,0,0-.77.77v16.12a.77.77,0,0,0,.77.77h4.61v1.92a.77.77,0,0,0,.77.77h12.28a.77.77,0,0,0,.77-.77V100.8A.38.38,0,0,0,122.59,100.52Zm-4.11-3,3.3,3.29h-3.3Zm-9.59-.16v13.43h-4.61V94.66h12.28v1.92h-6.91A.77.77,0,0,0,108.88,97.34Zm13,16.12H109.65V97.34h8.44V101a.19.19,0,0,0,.19.19h3.65Z"/></g><g id="Outline-2" data-name="Outline"><path class="cls-5" d="M76.64,0a76.64,76.64,0,1,0,76.64,76.64A76.64,76.64,0,0,0,76.64,0Zm0,147.49a70.85,70.85,0,1,1,70.85-70.85A70.85,70.85,0,0,1,76.64,147.49Z"/></g><g id="Shadows-2" data-name="Shadows" class="cls-4"><path d="M149,74.17a72.34,72.34,0,0,1-144.66,0c0,.49,0,1,0,1.48a72.37,72.37,0,1,0,144.73,0C149,75.15,149,74.66,149,74.17ZM76.64,21a60.55,60.55,0,0,1,60.48,57.6c0-1,.07-2,.07-3a60.55,60.55,0,0,0-121.1,0c0,1,0,2,.07,3A60.55,60.55,0,0,1,76.64,21Z"/></g><path class="cls-5" d="M76.64,142a64,64,0,1,1,64-64A64,64,0,0,1,76.64,142Zm0-124.89A60.92,60.92,0,1,0,137.56,78,61,61,0,0,0,76.64,17.1Z"/><path class="cls-5" d="M76.64,142a64,64,0,1,1,64-64A64,64,0,0,1,76.64,142Zm0-124.89A60.92,60.92,0,1,0,137.56,78,61,61,0,0,0,76.64,17.1Z"/></g></g></svg>