<svg xmlns="http://www.w3.org/2000/svg" viewBox="0 0 67.19 84.02"><defs><style>.cls-1,.cls-8{fill:#fff;}.cls-1{stroke:#000;}.cls-1,.cls-3{stroke-miterlimit:10;}.cls-2{fill:#171c1f;}.cls-3{fill:none;stroke:#171c1f;}.cls-4{opacity:0.25;}.cls-5{fill:#485761;}.cls-6{fill:#e67e22;}.cls-7{opacity:0.1;}</style></defs><title>transcricao_small</title><g id="Camada_2" data-name="Camada 2"><g id="Camada_1-2" data-name="Camada 1"><rect class="cls-1" x="14.34" y="1.55" width="52.09" height="61.56"/><g id="Inner_Lines_1" data-name="Inner Lines 1"><path class="cls-2" d="M65.11.5H14.6A1.58,1.58,0,0,0,13,2.08v60a1.58,1.58,0,0,0,1.58,1.58H65.11a1.58,1.58,0,0,0,1.58-1.58v-60A1.58,1.58,0,0,0,65.11.5Zm0,61.56H14.6v-60H65.11Z"/><path class="cls-3" d="M65.11.5H14.6A1.58,1.58,0,0,0,13,2.08v60a1.58,1.58,0,0,0,1.58,1.58H65.11a1.58,1.58,0,0,0,1.58-1.58v-60A1.58,1.58,0,0,0,65.11.5Zm0,61.56H14.6v-60H65.11Z"/></g><g id="Inner_Lines_2" data-name="Inner Lines 2" class="cls-4"><path d="M47.75,13.92H24.07V15.5H47.75ZM24.07,18.65v1.58H55.64V18.65Zm28.41,4.74H24.07V25H52.48Zm-28.41,11H55.64V32.86H24.07Zm26,3.16h-26v1.58h26Zm3.95,4.74h-30v1.58h30Zm-30,6.31H55.64V47.06H24.07Zm0,4.74H43V51.8H24.07Z"/></g><g id="Fill"><path class="cls-5" d="M16,28.59A10.66,10.66,0,0,0,5.33,39.25V57.37a10.66,10.66,0,0,0,21.32,0V39.25A10.66,10.66,0,0,0,16,28.59Z"/></g><g id="Green"><rect class="cls-6" x="6.4" y="49.91" width="19.19" height="2.13"/></g><g id="Shadows" class="cls-7"><path d="M16,64.83A9.59,9.59,0,0,1,6.4,55.24v2.13a9.59,9.59,0,0,0,19.19,0V55.24A9.59,9.59,0,0,1,16,64.83Z"/></g><g id="Inner_Lines_1-2" data-name="Inner Lines 1" class="cls-4"><path class="cls-2" d="M11.73,60.57a.53.53,0,1,0,.53.53A.53.53,0,0,0,11.73,60.57Zm1.07-2.13a.53.53,0,1,0,.53.53A.53.53,0,0,0,12.79,58.44Zm1.07,2.13a.53.53,0,1,0,.53.53A.53.53,0,0,0,13.86,60.57Zm7.46-2.67a.53.53,0,1,0,.53.53A.53.53,0,0,0,21.32,57.9Zm-2.13,0a.53.53,0,1,0,.53.53A.53.53,0,0,0,19.19,57.9ZM6.4,53.11v1.07H25.58V53.11Zm13.86,2.67a.53.53,0,1,0,.53.53A.53.53,0,0,0,20.25,55.77Z"/></g><g id="Inner_Lines_2-2" data-name="Inner Lines 2"><path class="cls-2" d="M6.4,53.11H25.58V52H6.4Zm0-4.26v1.07H25.58V48.84Z"/></g><g id="White" class="cls-7"><path class="cls-8" d="M11,36.43l2.13-2.13a.53.53,0,1,0-.75-.75l-2.13,2.13a.53.53,0,1,0,.75.75Zm5.49-2.51a.53.53,0,0,0-.38.16L10.82,39.4a.53.53,0,1,0,.75.75l5.33-5.33h0a.53.53,0,0,0-.38-.91Z"/></g><g id="Outline"><path class="cls-2" d="M16,69.1A11.73,11.73,0,0,0,27.72,57.37V39.25a11.73,11.73,0,1,0-23.45,0V57.37A11.73,11.73,0,0,0,16,69.1ZM6.4,39.25a9.59,9.59,0,1,1,19.19,0V57.37a9.59,9.59,0,0,1-19.19,0ZM30.92,49.91A1.07,1.07,0,0,0,29.85,51v6.4a13.86,13.86,0,0,1-27.72,0V51A1.07,1.07,0,1,0,0,51v6.4a16,16,0,0,0,14.92,16v8.57H7.46a1.07,1.07,0,1,0,0,2.13H24.52a1.07,1.07,0,0,0,0-2.13H17.06V73.32A16,16,0,0,0,32,57.37V51A1.07,1.07,0,0,0,30.92,49.91Z"/></g></g></g></svg>