<svg xmlns="http://www.w3.org/2000/svg" viewBox="0 0 153.28 153.28"><defs><style>.cls-1{fill:#1abc9c;}.cls-2{fill:#171c1f;}.cls-3{opacity:0.1;}.cls-4,.cls-9{fill:#fff;}.cls-4{stroke:#000;}.cls-4,.cls-5{stroke-miterlimit:10;}.cls-5{fill:none;stroke:#171c1f;}.cls-6{opacity:0.25;}.cls-7{fill:#485761;}.cls-8{fill:#e67e22;}</style></defs><title>transcricao</title><g id="Camada_2" data-name="Camada 2"><g id="Camada_1-2" data-name="Camada 1"><g id="Yellow"><circle class="cls-1" cx="76.64" cy="77.63" r="61.72"/></g><g id="Outline"><path class="cls-2" d="M76.64,0a76.64,76.64,0,1,0,76.64,76.64A76.64,76.64,0,0,0,76.64,0Zm0,147.49a70.85,70.85,0,1,1,70.85-70.85A70.85,70.85,0,0,1,76.64,147.49Z"/></g><g id="Shadows" class="cls-3"><path d="M76.64,21a60.55,60.55,0,0,1,60.48,57.6c0-1,.07-2,.07-3a60.55,60.55,0,1,0-121.1,0c0,1,0,2,.07,3A60.55,60.55,0,0,1,76.64,21ZM149,74.17a72.34,72.34,0,0,1-144.66,0c0,.49,0,1,0,1.48a72.37,72.37,0,0,0,144.73,0C149,75.15,149,74.66,149,74.17Z"/></g><path class="cls-2" d="M76.64,142a64,64,0,1,1,64-64A64,64,0,0,1,76.64,142Zm0-124.89A60.92,60.92,0,1,0,137.56,78,61,61,0,0,0,76.64,17.1Z"/><path class="cls-2" d="M76.64,142a64,64,0,1,1,64-64A64,64,0,0,1,76.64,142Zm0-124.89A60.92,60.92,0,1,0,137.56,78,61,61,0,0,0,76.64,17.1Z"/><rect class="cls-4" x="60.63" y="46.46" width="52.09" height="61.56"/><g id="Inner_Lines_1" data-name="Inner Lines 1"><path class="cls-2" d="M111.4,45.41H60.89A1.58,1.58,0,0,0,59.32,47v60a1.58,1.58,0,0,0,1.58,1.58H111.4A1.58,1.58,0,0,0,113,107V47A1.58,1.58,0,0,0,111.4,45.41Zm0,61.56H60.89V47H111.4Z"/><path class="cls-5" d="M111.4,45.41H60.89A1.58,1.58,0,0,0,59.32,47v60a1.58,1.58,0,0,0,1.58,1.58H111.4A1.58,1.58,0,0,0,113,107V47A1.58,1.58,0,0,0,111.4,45.41Zm0,61.56H60.89V47H111.4Z"/></g><g id="Inner_Lines_2" data-name="Inner Lines 2" class="cls-6"><path d="M94,58.82H70.36V60.4H94ZM70.36,63.56v1.58h31.57V63.56ZM98.78,68.3H70.36v1.58H98.78Zm-28.41,11h31.57V77.77H70.36Zm26,3.16h-26v1.58h26Zm3.95,4.74h-30v1.58h30Zm-30,6.31h31.57V92H70.36Zm0,4.74H89.31V96.71H70.36Z"/></g><g id="Fill"><path class="cls-7" d="M56.28,55A10.66,10.66,0,0,0,45.62,65.66V83.78a10.66,10.66,0,0,0,21.32,0V65.66A10.66,10.66,0,0,0,56.28,55Z"/></g><g id="Green"><rect class="cls-8" x="46.69" y="76.32" width="19.19" height="2.13"/></g><g id="Shadows-2" data-name="Shadows" class="cls-3"><path d="M56.28,91.24a9.59,9.59,0,0,1-9.59-9.59v2.13a9.59,9.59,0,1,0,19.19,0V81.65A9.59,9.59,0,0,1,56.28,91.24Z"/></g><g id="Inner_Lines_1-2" data-name="Inner Lines 1" class="cls-6"><path class="cls-2" d="M53.09,84.85a.53.53,0,1,0,.53.53A.53.53,0,0,0,53.09,84.85ZM52,87a.53.53,0,1,0,.53.53A.53.53,0,0,0,52,87Zm2.13,0a.53.53,0,1,0,.53.53A.53.53,0,0,0,54.15,87Zm7.46-2.67a.53.53,0,1,0,.53.53A.53.53,0,0,0,61.61,84.31Zm-14.92-4.8v1.07H65.88V79.52Zm13.86,2.67a.53.53,0,1,0,.53.53A.53.53,0,0,0,60.55,82.18Zm-1.07,2.13a.53.53,0,1,0,.53.53A.53.53,0,0,0,59.48,84.31Z"/></g><g id="Inner_Lines_2-2" data-name="Inner Lines 2"><path class="cls-2" d="M46.69,79.52H65.88V78.45H46.69Zm0-4.26v1.07H65.88V75.25Z"/></g><g id="White" class="cls-3"><path class="cls-9" d="M51.33,62.84l2.13-2.13a.53.53,0,1,0-.75-.75l-2.13,2.13a.53.53,0,1,0,.75.75Zm5.49-2.51a.53.53,0,0,0-.38.16l-5.33,5.33a.53.53,0,1,0,.75.75l5.33-5.33h0a.53.53,0,0,0-.38-.91Z"/></g><g id="Outline-2" data-name="Outline"><path class="cls-2" d="M71.21,76.32a1.07,1.07,0,0,0-1.07,1.07v6.4a13.86,13.86,0,0,1-27.72,0v-6.4a1.07,1.07,0,0,0-2.13,0v6.4a16,16,0,0,0,14.92,16v8.57H47.76a1.07,1.07,0,1,0,0,2.13H64.81a1.07,1.07,0,0,0,0-2.13H57.35V99.73a16,16,0,0,0,14.92-16v-6.4A1.07,1.07,0,0,0,71.21,76.32ZM56.28,95.51A11.73,11.73,0,0,0,68,83.78V65.66a11.73,11.73,0,1,0-23.45,0V83.78A11.73,11.73,0,0,0,56.28,95.51ZM46.69,65.66a9.59,9.59,0,1,1,19.19,0V83.78a9.59,9.59,0,1,1-19.19,0Z"/></g></g></g></svg>