<svg xmlns="http://www.w3.org/2000/svg" viewBox="0 0 153.28 153.28"><defs><style>.cls-1{fill:#1abc9c;}.cls-2{fill:#171c1f;}.cls-3{opacity:0.1;}.cls-4{fill:#fff;}.cls-5{fill:#e67e22;}.cls-6{fill:#70cbf6;}.cls-7{fill:#ff7575;}.cls-8{opacity:0.25;}</style></defs><title>tv</title><g id="Camada_2" data-name="Camada 2"><g id="Camada_1-2" data-name="Camada 1"><g id="Yellow"><circle class="cls-1" cx="76.64" cy="77.63" r="61.72"/></g><g id="Outline"><path class="cls-2" d="M76.64,0a76.64,76.64,0,1,0,76.64,76.64A76.64,76.64,0,0,0,76.64,0Zm0,147.49a70.85,70.85,0,1,1,70.85-70.85A70.85,70.85,0,0,1,76.64,147.49Z"/></g><g id="Shadows" class="cls-3"><path d="M76.64,21a60.55,60.55,0,0,1,60.48,57.6c0-1,.07-2,.07-3a60.55,60.55,0,1,0-121.1,0c0,1,0,2,.07,3A60.55,60.55,0,0,1,76.64,21ZM149,74.17a72.34,72.34,0,0,1-144.66,0c0,.49,0,1,0,1.48a72.37,72.37,0,0,0,144.73,0C149,75.15,149,74.66,149,74.17Z"/></g><path class="cls-2" d="M76.64,142a64,64,0,1,1,64-64A64,64,0,0,1,76.64,142Zm0-124.89A60.92,60.92,0,1,0,137.56,78,61,61,0,0,0,76.64,17.1Z"/><path class="cls-2" d="M76.64,142a64,64,0,1,1,64-64A64,64,0,0,1,76.64,142Zm0-124.89A60.92,60.92,0,1,0,137.56,78,61,61,0,0,0,76.64,17.1Z"/><g id="Fill"><rect class="cls-4" x="45.74" y="61.34" width="62.87" height="42.34" rx="5.13" ry="5.13"/></g><g id="Yellow-2" data-name="Yellow"><path class="cls-5" d="M103.48,61.34H93.21v42.34h10.26a5.13,5.13,0,0,0,5.13-5.13V66.48A5.13,5.13,0,0,0,103.48,61.34Z"/></g><g id="Blue"><rect class="cls-6" x="48.95" y="64.55" width="39.77" height="35.92" rx="1.92" ry="1.92"/></g><g id="Red"><circle class="cls-7" cx="100.91" cy="74.82" r="4.49"/></g><g id="White"><path class="cls-4" d="M100.91,87A1.92,1.92,0,1,0,99,85.08,1.92,1.92,0,0,0,100.91,87Zm0,3.85a1.92,1.92,0,1,0,1.92,1.92A1.92,1.92,0,0,0,100.91,90.85Z"/></g><g id="Inner_Lines_1" data-name="Inner Lines 1"><path class="cls-2" d="M100.91,82.51a2.57,2.57,0,1,0,2.57,2.57A2.57,2.57,0,0,0,100.91,82.51Zm0,3.85a1.28,1.28,0,1,1,1.28-1.28A1.28,1.28,0,0,1,100.91,86.36Zm-9,17.32h1.28V61.34H91.93ZM86.8,63.91H50.87a2.57,2.57,0,0,0-2.57,2.57V98.55a2.57,2.57,0,0,0,2.57,2.57H86.8a2.57,2.57,0,0,0,2.57-2.57V66.48A2.57,2.57,0,0,0,86.8,63.91Zm1.28,34.64a1.28,1.28,0,0,1-1.28,1.28H50.87a1.28,1.28,0,0,1-1.28-1.28V66.48a1.28,1.28,0,0,1,1.28-1.28H86.8a1.28,1.28,0,0,1,1.28,1.28Zm12.83-28.87A5.13,5.13,0,1,0,106,74.82,5.13,5.13,0,0,0,100.91,69.68Zm0,9a3.85,3.85,0,1,1,3.85-3.85A3.85,3.85,0,0,1,100.91,78.67Zm0,11.55a2.57,2.57,0,1,0,2.57,2.57A2.57,2.57,0,0,0,100.91,90.21Zm0,3.85a1.28,1.28,0,1,1,1.28-1.28A1.28,1.28,0,0,1,100.91,94.06Z"/></g><g id="Inner_Lines_2" data-name="Inner Lines 2" class="cls-8"><path d="M100.91,69.68a.64.64,0,0,0-.64.64v2.57a.64.64,0,0,0,1.28,0V70.33A.64.64,0,0,0,100.91,69.68Z"/></g><g id="Shadows-2" data-name="Shadows" class="cls-3"><path d="M103.39,85.72a2.55,2.55,0,0,1-5,0,2.57,2.57,0,1,0,5,0Zm-2.48-4.49A5.1,5.1,0,0,0,106,75.46a5.13,5.13,0,0,1-10.18,0,5.1,5.1,0,0,0,5.09,5.77Zm-50-13.47H86.8A1.28,1.28,0,0,1,88.08,69V66.48a1.28,1.28,0,0,0-1.28-1.28H50.87a1.28,1.28,0,0,0-1.28,1.28V69A1.28,1.28,0,0,1,50.87,67.76Zm52.6,34.64H50.87a5.13,5.13,0,0,1-5.13-5.13v1.28a5.13,5.13,0,0,0,5.13,5.13h52.6a5.13,5.13,0,0,0,5.13-5.13V97.27A5.13,5.13,0,0,1,103.48,102.4Zm-2.57-7.06a2.56,2.56,0,0,1-2.48-1.92,2.57,2.57,0,1,0,5,0A2.56,2.56,0,0,1,100.91,95.34Z"/></g><g id="White-2" data-name="White" class="cls-8"><path class="cls-4" d="M55.82,74l2.57-2.57a.64.64,0,1,0-.91-.91l-2.57,2.57a.64.64,0,1,0,.91.91Zm6.6-3a.64.64,0,0,0-.45.19l-6.42,6.42a.64.64,0,0,0,.91.91l6.42-6.42a.64.64,0,0,0-.45-1.1Z"/></g><g id="Outline-2" data-name="Outline"><path class="cls-2" d="M103.48,58.78H80.27L90.91,48.14a1.28,1.28,0,1,0-1.81-1.81L77.17,58.25,57.55,38.63a1.28,1.28,0,0,0-1.81,1.81L74.08,58.78H50.87a7.7,7.7,0,0,0-7.7,7.7V98.55a7.7,7.7,0,0,0,7.7,7.7h52.6a7.7,7.7,0,0,0,7.7-7.7V66.48A7.7,7.7,0,0,0,103.48,58.78Zm5.13,39.77a5.13,5.13,0,0,1-5.13,5.13H50.87a5.13,5.13,0,0,1-5.13-5.13V66.48a5.13,5.13,0,0,1,5.13-5.13h52.6a5.13,5.13,0,0,1,5.13,5.13Z"/></g></g></g></svg>